<?xml version="1.0" encoding="UTF-8" standalone="no"?>
<!DOCTYPE svg PUBLIC "-//W3C//DTD SVG 1.1//EN" "http://www.w3.org/Graphics/SVG/1.1/DTD/svg11.dtd">
<svg xmlns="http://www.w3.org/2000/svg" version="1.1" viewBox="0 0 720 535" width="720.0pt" height="535.0pt">
<path d="M 0.00 0.00 L 720.00 0.00 L 720.00 535.00 L 0.00 535.00 L 0.00 0.00 Z" fill="#ffffff" />
<path d="M 536.44 2.69 C 540.60 4.04 546.49 6.16 548.72 10.18 C 548.72 13.94 548.42 17.75 548.05 21.49 C 541.84 13.11 532.40 8.55 522.00 8.45 C 507.31 7.82 492.75 13.12 481.53 22.53 C 488.70 22.53 495.21 21.84 501.93 25.06 C 513.63 30.72 522.73 41.93 526.70 54.23 C 529.30 62.44 530.95 71.16 528.95 79.69 C 524.73 80.77 520.57 82.04 516.35 83.11 C 519.18 71.64 518.07 59.99 513.95 48.98 C 511.10 40.72 506.18 33.45 498.16 29.51 C 500.56 33.23 502.96 36.70 503.86 41.14 C 506.68 53.01 503.07 65.11 495.13 74.19 C 500.17 86.99 506.83 99.24 514.11 110.89 C 518.33 116.45 521.99 122.14 526.89 127.09 C 532.20 133.11 537.66 138.98 543.25 144.75 C 547.28 148.74 552.01 152.00 556.24 155.79 C 555.02 157.23 553.75 158.64 552.51 160.08 C 575.74 164.93 597.75 173.89 616.75 188.25 C 633.31 200.23 646.12 215.86 656.89 233.10 C 664.59 245.52 670.64 259.06 678.86 271.13 C 681.29 274.35 683.01 277.75 687.17 278.88 C 696.20 282.04 704.41 285.82 710.50 293.49 C 720.84 307.14 722.70 327.32 714.36 342.36 C 707.47 352.78 697.63 363.43 685.59 367.67 C 676.91 371.16 668.15 374.43 659.22 377.21 C 654.99 378.40 650.69 378.80 646.61 380.53 C 628.34 387.60 609.46 390.39 590.02 391.75 C 577.85 392.79 565.64 392.83 553.45 392.12 C 548.25 402.78 536.15 407.18 525.05 408.23 C 516.56 408.59 507.18 408.16 499.30 404.68 C 497.55 403.69 495.11 404.89 493.28 405.30 C 486.34 407.52 479.25 409.23 472.29 411.39 C 470.33 411.81 469.88 413.38 468.82 414.84 C 465.83 419.80 460.93 423.25 455.86 425.84 C 443.34 431.87 429.50 433.65 415.73 432.33 C 412.95 432.05 410.60 430.67 407.95 430.06 C 402.65 431.00 397.54 433.05 392.30 434.31 C 388.90 435.41 384.91 435.71 382.46 438.46 C 375.09 445.98 365.68 451.34 355.35 453.51 C 351.28 454.26 347.32 454.21 343.57 452.25 C 341.49 451.01 339.80 452.15 337.66 452.60 C 326.10 456.08 314.33 458.99 302.95 463.03 C 298.57 464.61 294.49 464.89 290.64 467.63 C 283.21 472.68 275.11 476.18 266.02 476.49 C 262.33 476.56 259.25 475.52 255.63 476.68 C 251.33 478.03 246.80 478.93 242.62 480.60 C 240.49 483.18 238.91 486.20 236.82 488.83 C 233.49 493.09 229.59 497.00 225.27 500.27 C 217.99 505.67 208.98 507.98 200.02 508.22 C 191.15 508.22 182.96 505.09 176.10 499.55 C 171.49 502.42 166.29 504.20 160.86 504.54 C 157.58 504.71 154.48 505.05 151.44 506.39 C 150.23 507.52 149.39 509.13 148.50 510.51 C 145.76 515.01 142.34 518.93 138.52 522.53 C 127.07 534.03 107.66 537.84 92.87 531.05 C 89.64 529.69 87.10 527.25 84.00 525.73 C 78.66 526.78 73.48 529.25 68.10 529.94 C 62.94 529.28 57.79 526.14 53.17 523.82 C 51.89 523.25 50.45 522.13 49.03 522.18 C 45.27 522.97 40.39 525.66 36.52 524.48 C 32.58 523.05 28.62 521.21 25.25 518.70 C 21.10 515.04 16.36 512.57 12.77 508.22 C 7.28 502.25 4.49 495.11 1.90 487.57 C -1.03 474.24 1.37 460.99 6.59 448.57 C 12.16 434.81 21.09 423.81 30.49 412.50 C 39.10 402.14 48.94 393.79 59.22 385.22 C 71.59 375.55 85.39 367.40 99.45 360.45 C 124.78 348.08 151.77 338.47 178.88 330.86 C 191.10 327.75 203.23 324.33 215.51 321.45 C 231.91 317.25 248.67 312.85 264.48 306.48 C 270.30 303.77 275.82 300.43 281.58 297.60 C 287.32 294.79 291.87 290.71 296.98 286.98 C 301.95 283.26 306.89 279.68 311.39 275.39 C 316.35 270.70 321.69 266.37 326.44 261.47 C 330.47 256.80 335.16 252.86 339.38 248.37 C 351.12 237.23 362.23 224.99 374.81 214.80 C 384.90 206.19 395.73 197.96 407.24 191.31 C 415.10 186.88 422.92 182.40 430.94 178.26 C 428.31 176.98 425.77 175.60 423.32 174.00 C 425.37 167.61 427.55 161.30 429.88 155.01 C 435.68 135.81 440.91 116.71 447.81 97.87 C 451.25 89.27 454.07 80.44 457.23 71.74 C 454.43 71.29 451.66 70.71 448.90 70.04 C 448.24 66.90 447.56 63.80 447.58 60.56 C 451.83 62.11 455.89 63.68 460.48 63.90 C 463.81 54.53 467.50 45.30 471.01 35.99 C 472.87 31.20 473.17 26.64 476.43 22.44 C 484.80 11.77 497.47 4.40 510.71 1.72 C 519.31 -0.24 527.95 0.63 536.44 2.69 Z" fill="#000000" />
<path d="M 531.00 3.99 C 536.36 5.16 542.24 7.06 546.52 10.61 C 548.37 11.86 547.22 15.32 547.32 17.22 C 544.13 14.73 541.31 12.18 537.63 10.35 C 532.53 7.84 526.69 6.67 521.02 6.67 C 508.77 6.49 496.46 10.50 486.35 17.34 C 482.93 19.62 479.98 22.44 476.68 24.85 C 481.23 17.67 489.18 12.41 496.66 8.65 C 507.24 3.27 519.37 1.91 531.00 3.99 Z" fill="#00cad8" />
<path d="M 483.21 23.95 C 489.56 25.47 495.19 28.63 498.76 34.25 C 505.15 44.21 504.32 58.17 497.97 67.96 C 493.42 74.99 486.54 80.59 478.87 83.89 C 473.33 86.28 467.54 86.49 461.60 86.04 C 461.62 83.52 461.69 81.01 461.78 78.49 C 471.02 80.11 480.81 78.34 487.90 71.90 C 498.85 61.84 501.44 44.31 493.21 31.77 C 490.67 27.87 487.01 26.29 483.21 23.95 Z" fill="#00c3d0" />
<path d="M 490.76 24.11 C 501.71 24.77 511.65 32.49 517.94 41.06 C 525.93 51.42 528.40 65.83 527.54 78.61 C 524.43 79.51 521.30 80.34 518.16 81.14 C 519.86 71.81 520.37 62.66 517.37 53.51 C 514.37 44.35 511.07 35.89 502.84 30.15 C 499.14 27.32 494.32 26.98 490.76 24.11 Z" fill="#ffffff" />
<path d="M 481.24 25.55 C 485.92 26.65 488.87 29.91 490.95 34.06 C 494.81 41.52 493.50 50.80 488.26 57.24 C 482.75 63.88 474.57 68.12 466.03 69.11 C 461.04 69.72 454.85 69.99 450.27 67.61 C 449.83 66.48 449.45 65.32 449.12 64.15 C 454.37 65.28 459.28 66.49 464.70 65.67 C 473.89 64.28 482.31 58.87 486.38 50.38 C 488.92 45.06 489.67 39.08 487.49 33.51 C 486.25 30.29 483.43 28.14 481.24 25.55 Z" fill="#ff0000" />
<path d="M 479.20 28.73 C 479.83 30.56 479.99 32.62 480.18 34.54 C 476.82 36.69 472.36 40.41 473.64 44.92 C 475.23 48.82 478.48 48.38 482.01 48.73 C 482.29 50.26 483.14 52.14 482.73 53.68 C 480.68 57.01 476.96 59.47 473.47 61.09 C 470.63 59.46 468.00 59.18 464.78 59.11 C 468.22 48.90 472.51 39.02 475.97 28.81 C 475.96 27.42 478.55 28.27 479.20 28.73 Z" fill="#ff0000" />
<path d="M 484.07 30.59 C 487.86 35.05 488.25 41.09 486.86 46.57 C 484.48 41.82 484.49 35.80 484.07 30.59 Z" fill="#c5c5c5" />
<path d="M 480.18 34.54 C 480.59 39.33 480.73 44.05 482.01 48.73 C 478.48 48.38 475.23 48.82 473.64 44.92 C 472.36 40.41 476.82 36.69 480.18 34.54 Z" fill="#ffffff" />
<path d="M 493.34 34.89 C 498.45 44.43 496.96 55.64 491.91 64.86 C 491.02 62.59 490.25 60.26 489.45 57.96 C 491.51 54.47 493.39 51.10 494.10 47.05 C 495.01 42.79 493.93 39.05 493.34 34.89 Z" fill="#ffffff" />
<path d="M 464.78 59.11 C 468.00 59.18 470.63 59.46 473.47 61.09 C 470.15 62.62 466.64 63.43 463.05 63.99 C 463.60 62.35 464.20 60.73 464.78 59.11 Z" fill="#ffffff" />
<path d="M 485.83 62.17 C 486.72 64.72 487.51 67.30 488.29 69.89 C 485.04 72.40 481.76 74.66 477.74 75.76 C 472.13 77.50 466.61 77.01 460.92 76.04 C 460.19 80.01 460.01 84.02 460.00 88.04 C 462.47 88.28 464.98 88.52 467.46 88.56 C 467.45 91.77 468.72 94.01 471.73 95.34 C 476.33 96.77 481.54 93.80 483.71 89.72 C 484.91 87.61 484.70 85.18 484.83 82.83 C 487.06 81.26 489.14 79.59 491.28 77.90 C 495.60 86.72 499.45 96.00 504.73 104.26 C 506.43 107.09 508.00 110.00 509.77 112.79 C 505.34 115.31 502.36 119.74 502.81 124.97 C 503.18 128.03 505.28 129.86 507.22 132.03 C 500.68 134.89 496.21 139.76 492.93 145.99 C 491.27 149.89 492.03 154.82 495.43 157.57 C 498.38 160.21 502.90 160.61 506.02 158.00 C 509.08 155.56 509.38 151.97 510.34 148.45 C 516.16 147.57 522.11 146.54 528.00 146.56 C 530.66 147.16 533.10 150.19 535.99 150.36 C 537.74 150.22 539.52 149.57 541.20 149.07 C 544.41 151.84 547.81 154.35 550.89 157.28 C 549.17 158.13 547.41 158.87 545.62 159.55 C 545.59 158.09 545.58 156.62 545.56 155.16 C 535.75 154.72 525.36 158.94 516.24 162.23 C 500.61 167.65 487.49 175.44 470.64 177.03 C 472.99 174.77 476.45 172.86 478.04 169.98 C 479.39 167.61 478.38 164.13 475.75 163.16 C 469.76 161.14 462.61 164.53 460.16 170.30 C 459.42 172.22 459.40 174.52 461.34 175.72 C 463.68 177.05 467.02 176.76 469.64 177.10 C 462.47 179.13 454.35 178.53 446.97 178.13 C 439.39 177.74 432.44 175.46 426.27 171.01 C 428.12 165.36 430.19 159.80 432.16 154.19 C 435.53 143.45 438.63 132.61 442.03 121.88 C 444.11 124.10 445.66 126.30 449.00 126.50 C 455.59 126.83 460.88 119.77 459.43 113.51 C 458.61 110.60 455.91 108.36 452.87 108.25 C 450.56 108.17 448.08 109.30 445.90 110.00 C 447.58 104.44 449.50 99.04 451.66 93.65 C 454.24 87.27 456.17 80.66 458.73 74.27 C 461.19 74.95 463.30 75.84 465.87 74.95 C 469.14 73.99 471.15 71.78 473.46 69.46 C 477.85 67.44 481.83 64.85 485.83 62.17 Z" fill="#ff0000" />
<path d="M 473.46 69.46 C 471.15 71.78 469.14 73.99 465.87 74.95 C 463.30 75.84 461.19 74.95 458.73 74.27 C 459.06 73.44 459.39 72.60 459.74 71.77 C 464.42 71.47 468.94 70.76 473.46 69.46 Z" fill="#ffffff" />
<path d="M 484.83 82.83 C 484.70 85.18 484.91 87.61 483.71 89.72 C 481.54 93.80 476.33 96.77 471.73 95.34 C 468.72 94.01 467.45 91.77 467.46 88.56 C 473.69 88.21 479.60 86.19 484.83 82.83 Z" fill="#ffffff" />
<path d="M 452.87 108.25 C 455.91 108.36 458.61 110.60 459.43 113.51 C 460.88 119.77 455.59 126.83 449.00 126.50 C 445.66 126.30 444.11 124.10 442.03 121.88 C 443.27 117.90 444.52 113.93 445.90 110.00 C 448.08 109.30 450.56 108.17 452.87 108.25 Z" fill="#ffffff" />
<path d="M 477.49 112.52 C 481.18 111.54 485.04 112.47 487.08 115.89 C 491.25 122.83 485.18 133.03 477.09 132.71 C 473.12 132.69 469.78 129.72 468.94 125.91 C 467.52 120.09 472.00 114.11 477.49 112.52 Z" fill="#ffffff" />
<path d="M 509.77 112.79 C 513.25 117.54 516.60 122.47 520.43 126.94 C 519.60 128.19 518.79 129.45 517.98 130.71 C 520.39 131.03 522.81 131.32 525.21 131.78 C 528.24 133.08 531.05 134.14 533.28 136.70 C 534.98 138.54 534.98 140.99 535.81 143.27 C 537.24 145.46 539.33 147.28 541.20 149.07 C 539.52 149.57 537.74 150.22 535.99 150.36 C 533.10 150.19 530.66 147.16 528.00 146.56 C 522.11 146.54 516.16 147.57 510.34 148.45 C 509.38 151.97 509.08 155.56 506.02 158.00 C 502.90 160.61 498.38 160.21 495.43 157.57 C 492.03 154.82 491.27 149.89 492.93 145.99 C 496.21 139.76 500.68 134.89 507.22 132.03 C 505.28 129.86 503.18 128.03 502.81 124.97 C 502.36 119.74 505.34 115.31 509.77 112.79 Z" fill="#ffffff" />
<path d="M 520.43 126.94 C 521.99 128.58 523.53 130.24 525.21 131.78 C 522.81 131.32 520.39 131.03 517.98 130.71 C 518.79 129.45 519.60 128.19 520.43 126.94 Z" fill="#f72020" />
<path d="M 529.77 138.21 C 532.28 139.70 533.19 141.69 533.82 144.48 C 528.80 142.82 524.41 140.81 518.95 141.83 C 510.52 142.50 503.00 146.50 496.91 152.22 C 496.31 150.89 495.35 149.48 495.21 148.01 C 496.20 142.91 499.40 138.22 504.45 136.45 C 512.34 133.51 522.51 133.63 529.77 138.21 Z" fill="#000000" />
<path d="M 447.48 143.44 C 450.62 142.55 453.94 143.35 456.11 145.85 C 460.68 150.79 458.78 160.09 452.28 162.30 C 447.75 163.88 442.86 161.01 441.36 156.62 C 439.47 151.41 442.15 145.23 447.48 143.44 Z" fill="#ffffff" />
<path d="M 604.60 147.39 C 607.99 150.32 611.07 154.20 612.41 158.53 C 613.24 161.10 611.69 162.91 610.81 165.23 C 606.87 157.92 598.77 153.08 590.88 151.21 C 585.84 149.98 581.76 151.67 577.04 153.08 C 577.54 151.08 577.55 148.62 579.16 147.19 C 586.32 140.92 597.43 141.42 604.60 147.39 Z" fill="#000000" />
<path d="M 537.72 157.25 C 539.84 157.10 541.96 156.99 544.09 156.90 C 543.63 157.62 543.17 158.34 542.70 159.05 C 541.04 158.46 539.37 157.87 537.72 157.25 Z" fill="#ac0101" />
<path d="M 525.98 162.51 C 536.97 163.16 547.98 164.62 558.67 167.31 C 576.39 171.58 593.02 179.29 608.27 189.22 C 602.42 189.07 597.33 188.30 592.74 192.74 C 587.96 197.42 588.45 202.90 588.52 209.03 C 578.53 194.58 565.21 182.39 549.15 175.04 C 539.18 170.09 526.88 167.46 516.05 171.10 C 511.69 172.34 508.03 174.77 504.75 177.84 C 496.59 176.71 488.38 178.42 482.66 184.66 C 488.87 184.75 495.02 184.85 501.14 186.05 C 499.42 191.61 498.83 197.13 498.99 202.93 L 500.04 202.94 C 500.26 197.11 500.97 191.68 504.28 186.71 L 505.12 186.90 C 502.88 191.38 501.06 195.77 501.24 200.88 C 501.43 209.33 504.52 216.47 507.98 223.99 C 514.32 237.94 523.86 250.55 534.46 261.53 C 538.32 265.46 539.94 270.20 544.75 273.24 C 550.65 277.14 556.68 281.17 563.22 283.92 C 568.22 286.46 572.66 289.77 577.32 292.83 C 575.86 293.59 574.37 294.29 572.91 295.05 C 573.29 296.28 573.69 297.49 574.12 298.70 C 550.72 286.60 529.88 268.19 511.77 249.23 C 499.62 236.33 488.08 222.17 479.14 206.84 C 474.66 198.43 471.07 189.87 473.20 180.14 C 479.15 178.47 485.06 177.15 490.84 174.91 C 498.00 172.15 504.94 168.85 512.11 166.11 C 516.81 164.40 520.83 162.07 525.98 162.51 Z" fill="#00c0cd" />
<path d="M 477.81 167.48 C 476.90 170.01 475.96 171.93 473.33 172.94 C 470.31 173.97 467.34 176.28 464.14 175.08 C 462.76 174.56 460.37 173.28 461.53 171.52 C 466.73 169.58 472.31 168.21 477.81 167.48 Z" fill="#ffffff" />
<path d="M 549.15 175.04 C 542.22 175.77 536.05 172.30 528.94 172.19 C 521.90 171.90 512.93 173.33 507.83 178.67 C 506.81 178.38 505.78 178.10 504.75 177.84 C 508.03 174.77 511.69 172.34 516.05 171.10 C 526.88 167.46 539.18 170.09 549.15 175.04 Z" fill="#018495" />
<path d="M 528.94 172.19 C 536.05 172.30 542.22 175.77 549.15 175.04 C 565.21 182.39 578.53 194.58 588.52 209.03 C 589.05 209.80 589.57 210.56 590.10 211.33 C 590.08 208.28 590.01 205.15 590.37 202.12 C 592.41 197.01 594.96 193.61 600.15 191.43 C 605.17 191.34 610.42 193.04 615.24 194.41 C 618.87 197.00 621.67 200.08 624.97 203.02 C 631.12 208.22 636.74 214.28 641.45 220.81 C 642.83 225.73 646.06 229.31 648.08 233.92 C 651.33 241.09 654.00 248.66 655.65 256.36 C 656.44 260.42 656.78 264.50 658.09 268.46 C 659.46 257.36 654.44 248.46 652.07 238.10 C 661.09 254.44 662.49 275.04 654.68 292.14 C 653.15 295.15 651.24 297.42 648.09 298.78 C 648.77 297.93 649.42 297.06 650.05 296.17 C 653.13 291.19 653.72 284.76 654.18 279.04 C 655.06 258.20 648.31 237.69 636.13 220.88 C 630.07 212.68 622.64 205.83 613.18 201.78 C 609.07 200.18 604.19 198.89 600.03 201.04 C 596.93 202.66 595.49 205.73 594.82 209.02 C 593.90 214.11 594.73 219.60 596.55 224.40 C 598.03 228.33 599.54 232.17 600.20 236.35 C 599.15 234.84 598.17 233.29 597.40 231.62 C 590.05 213.91 576.68 198.41 559.84 189.14 C 550.72 183.90 540.54 180.68 529.96 180.85 C 526.30 180.90 522.84 181.88 519.47 183.23 C 517.59 182.33 515.68 181.47 513.76 180.67 C 520.68 176.21 529.93 176.28 537.81 177.27 C 545.21 178.20 551.32 181.54 558.25 183.87 C 553.29 179.97 547.60 178.06 541.60 176.41 C 536.27 175.01 530.64 174.56 525.16 175.19 C 519.72 175.86 515.20 178.27 509.81 179.27 L 507.83 178.67 C 512.93 173.33 521.90 171.90 528.94 172.19 Z" fill="#005b6b" />
<path d="M 525.16 175.19 C 530.64 174.56 536.27 175.01 541.60 176.41 C 547.60 178.06 553.29 179.97 558.25 183.87 C 551.32 181.54 545.21 178.20 537.81 177.27 C 529.93 176.28 520.68 176.21 513.76 180.67 C 512.45 180.16 511.13 179.71 509.81 179.27 C 515.20 178.27 519.72 175.86 525.16 175.19 Z" fill="#0494a3" />
<path d="M 504.75 177.84 C 505.78 178.10 506.81 178.38 507.83 178.67 L 509.81 179.27 C 511.13 179.71 512.45 180.16 513.76 180.67 C 515.68 181.47 517.59 182.33 519.47 183.23 C 524.34 186.26 529.07 189.81 532.78 194.21 C 536.85 199.07 541.07 203.34 544.29 208.85 C 540.30 206.15 536.65 203.03 532.67 200.32 C 525.94 195.72 518.68 191.85 511.12 188.81 C 509.16 188.07 507.15 187.40 505.12 186.90 L 504.28 186.71 C 503.24 186.47 502.19 186.25 501.14 186.05 C 495.02 184.85 488.87 184.75 482.66 184.66 C 488.38 178.42 496.59 176.71 504.75 177.84 Z" fill="#ffffff" />
<path d="M 470.72 179.73 C 470.46 184.13 469.63 188.09 470.66 192.51 C 471.87 197.41 473.73 202.47 476.04 206.95 C 482.18 218.21 489.75 228.25 497.82 238.17 C 509.97 252.59 523.27 266.20 537.86 278.16 C 545.08 284.20 552.46 290.00 560.44 295.01 C 550.55 295.74 540.64 296.77 530.83 298.25 C 531.16 297.25 531.49 296.25 531.80 295.25 C 530.80 294.62 529.80 293.98 528.80 293.35 C 524.02 295.23 518.86 295.37 513.98 297.02 C 506.54 298.96 500.09 303.03 494.48 308.20 C 493.31 307.50 492.14 306.74 490.90 306.19 C 488.33 306.91 485.95 308.21 483.43 309.15 C 490.97 299.77 498.51 290.40 506.01 281.00 C 508.06 278.33 510.75 276.28 512.87 273.69 C 513.17 269.60 510.46 265.10 508.14 261.87 C 502.56 254.57 495.13 248.52 487.43 243.57 C 477.06 236.78 465.64 231.25 453.68 227.93 C 455.35 220.80 457.32 213.85 459.87 206.99 C 462.29 199.29 465.82 192.02 468.21 184.31 C 468.72 182.57 469.61 181.14 470.72 179.73 Z" fill="#ffffff" />
<path d="M 446.46 181.44 C 453.80 181.98 461.08 181.63 468.41 181.05 C 467.04 185.88 465.08 190.46 463.16 195.10 C 459.23 205.67 455.38 216.24 452.64 227.21 C 445.43 226.00 438.38 224.25 431.05 223.79 C 410.15 222.27 387.95 226.85 370.11 238.10 C 351.22 250.07 336.83 268.73 322.20 285.19 C 316.33 291.34 310.50 297.72 304.08 303.30 C 303.25 301.25 303.07 298.52 300.92 297.44 C 298.99 297.86 297.43 298.82 295.72 299.77 C 279.11 309.20 261.71 317.18 243.76 323.71 C 240.42 325.00 236.58 325.32 234.14 328.15 C 232.07 330.19 232.07 333.93 231.47 336.65 C 224.09 338.63 216.64 340.30 209.27 342.32 C 181.31 350.33 153.36 358.39 125.39 366.37 C 107.24 370.71 89.94 380.24 74.43 390.42 C 65.81 395.98 58.05 402.58 50.56 409.57 C 44.21 415.71 37.64 422.50 33.15 430.15 C 31.17 433.45 30.49 437.06 30.21 440.84 C 42.13 441.10 54.09 439.45 66.04 440.13 C 70.15 440.49 74.54 438.64 78.52 437.57 C 122.30 425.01 166.06 412.44 209.85 399.90 C 218.29 398.03 226.41 395.18 234.72 392.86 C 235.28 395.40 235.83 397.94 236.35 400.49 C 225.62 403.90 214.98 407.38 204.01 409.96 C 183.25 415.89 162.50 421.84 141.76 427.80 C 134.95 429.61 128.40 432.13 121.51 433.64 C 109.80 437.37 97.95 440.61 86.14 444.02 C 71.60 447.38 57.68 452.74 43.15 456.17 C 35.86 458.16 28.55 460.17 21.33 462.40 C 16.47 464.23 11.62 465.79 6.59 467.09 C 7.73 455.48 13.99 443.72 19.75 433.73 C 24.39 426.59 30.02 420.01 35.60 413.59 C 51.33 397.18 68.87 382.82 88.83 371.85 C 115.27 357.25 144.05 346.47 172.97 337.95 C 182.43 334.69 192.20 332.74 201.74 329.80 C 214.32 326.36 227.16 323.67 239.53 319.50 C 254.25 315.35 269.05 309.99 282.35 302.35 C 292.71 297.08 302.29 290.73 310.82 282.81 C 315.93 278.91 320.28 274.34 324.73 269.72 C 339.36 255.20 352.93 240.07 368.69 226.70 C 376.52 220.14 384.39 213.64 392.72 207.73 C 405.80 197.39 421.48 189.76 436.34 182.29 C 439.72 180.30 442.79 181.32 446.46 181.44 Z" fill="#ffffff" />
<path d="M 529.96 180.85 C 540.54 180.68 550.72 183.90 559.84 189.14 C 576.68 198.41 590.05 213.91 597.40 231.62 C 598.17 233.29 599.15 234.84 600.20 236.35 C 599.54 232.17 598.03 228.33 596.55 224.40 C 594.73 219.60 593.90 214.11 594.82 209.02 C 595.49 205.73 596.93 202.66 600.03 201.04 C 604.19 198.89 609.07 200.18 613.18 201.78 C 622.64 205.83 630.07 212.68 636.13 220.88 C 648.31 237.69 655.06 258.20 654.18 279.04 C 653.72 284.76 653.13 291.19 650.05 296.17 C 649.62 294.75 649.61 292.34 648.13 291.63 C 645.90 290.38 642.78 290.55 640.29 290.68 C 633.81 291.81 627.25 291.52 620.80 292.81 C 618.20 288.81 616.25 284.30 614.15 280.02 C 613.75 284.63 613.27 289.17 612.03 293.64 C 610.53 293.17 608.84 292.50 607.25 292.44 C 604.46 292.42 601.98 293.23 599.15 292.78 C 594.87 292.75 590.66 294.56 586.28 294.54 C 586.16 295.46 586.04 296.38 585.92 297.30 C 582.99 295.94 580.07 294.51 577.32 292.83 C 572.66 289.77 568.22 286.46 563.22 283.92 C 552.95 275.10 541.79 266.35 532.82 256.17 C 526.64 248.54 520.73 240.28 516.67 231.31 C 511.95 220.96 507.24 211.72 507.59 199.95 C 507.61 195.85 509.15 192.31 511.12 188.81 C 518.68 191.85 525.94 195.72 532.67 200.32 C 536.65 203.03 540.30 206.15 544.29 208.85 C 541.07 203.34 536.85 199.07 532.78 194.21 C 529.07 189.81 524.34 186.26 519.47 183.23 C 522.84 181.88 526.30 180.90 529.96 180.85 Z" fill="#88d9df" />
<path d="M 501.14 186.05 C 502.19 186.25 503.24 186.47 504.28 186.71 C 500.97 191.68 500.26 197.11 500.04 202.94 L 498.99 202.93 C 498.83 197.13 499.42 191.61 501.14 186.05 Z" fill="#016777" />
<path d="M 505.12 186.90 C 507.15 187.40 509.16 188.07 511.12 188.81 C 509.15 192.31 507.61 195.85 507.59 199.95 C 507.24 211.72 511.95 220.96 516.67 231.31 C 520.73 240.28 526.64 248.54 532.82 256.17 C 541.79 266.35 552.95 275.10 563.22 283.92 C 556.68 281.17 550.65 277.14 544.75 273.24 C 539.94 270.20 538.32 265.46 534.46 261.53 C 523.86 250.55 514.32 237.94 507.98 223.99 C 504.52 216.47 501.43 209.33 501.24 200.88 C 501.06 195.77 502.88 191.38 505.12 186.90 Z" fill="#005b6b" />
<path d="M 608.27 189.22 C 610.64 190.88 612.92 192.68 615.24 194.41 C 610.42 193.04 605.17 191.34 600.15 191.43 C 593.87 191.19 590.70 196.44 590.37 202.12 C 590.01 205.15 590.08 208.28 590.10 211.33 C 589.57 210.56 589.05 209.80 588.52 209.03 C 588.45 202.90 587.96 197.42 592.74 192.74 C 597.33 188.30 602.42 189.07 608.27 189.22 Z" fill="#0098a6" />
<path d="M 600.15 191.43 C 594.96 193.61 592.41 197.01 590.37 202.12 C 590.70 196.44 593.87 191.19 600.15 191.43 Z" fill="#00b1c1" />
<path d="M 641.45 220.81 C 648.99 230.15 655.85 240.63 662.04 250.91 C 664.89 259.02 669.36 266.26 671.42 274.62 C 673.50 282.16 674.38 289.79 672.21 297.44 C 671.45 295.67 670.80 293.68 669.66 292.11 C 664.79 289.71 659.56 289.96 654.68 292.14 C 662.49 275.04 661.09 254.44 652.07 238.10 C 654.44 248.46 659.46 257.36 658.09 268.46 C 656.78 264.50 656.44 260.42 655.65 256.36 C 654.00 248.66 651.33 241.09 648.08 233.92 C 646.06 229.31 642.83 225.73 641.45 220.81 Z" fill="#00c0cd" />
<path d="M 431.05 223.79 C 438.38 224.25 445.43 226.00 452.64 227.21 C 452.28 228.52 451.90 229.83 451.53 231.14 C 440.80 228.33 430.15 226.36 419.00 226.65 C 405.75 226.96 392.37 229.74 380.30 235.29 C 368.58 240.80 359.01 248.82 349.98 257.97 C 339.11 268.58 330.09 280.66 319.61 291.60 C 314.72 296.43 310.11 301.47 304.94 305.95 C 303.58 307.15 302.51 308.16 302.41 310.09 C 301.27 320.51 302.07 331.51 303.05 341.92 C 303.93 348.74 304.40 356.07 306.57 362.57 C 311.84 359.71 317.37 356.76 322.16 353.15 C 331.63 345.92 340.73 338.37 350.44 331.44 C 372.55 315.54 398.05 302.22 424.95 296.99 C 430.74 295.75 436.48 295.11 442.40 294.98 C 442.41 295.60 442.42 296.21 442.44 296.83 C 430.18 296.67 417.37 300.19 405.72 303.79 C 379.59 312.75 356.40 327.75 335.12 345.14 C 326.07 352.88 316.01 359.00 306.33 365.81 C 306.78 367.05 307.23 368.30 307.67 369.54 C 307.97 370.51 308.25 371.50 308.49 372.49 C 309.39 377.50 310.47 382.40 311.89 387.29 C 313.02 391.75 314.64 396.02 316.15 400.36 C 318.66 408.77 322.29 416.95 326.14 424.81 C 327.69 427.80 326.66 432.08 323.56 433.60 C 320.68 434.54 317.63 434.81 314.74 435.76 C 298.02 441.61 280.97 446.46 264.19 452.16 C 259.31 453.96 254.10 453.42 250.22 449.79 C 245.62 446.01 245.26 439.25 243.60 433.81 C 242.54 429.45 241.58 425.06 240.51 420.70 C 239.88 417.38 239.07 414.10 238.34 410.80 C 237.99 408.72 237.60 406.65 237.18 404.58 C 236.91 403.22 236.63 401.85 236.35 400.49 C 235.83 397.94 235.28 395.40 234.72 392.86 C 226.41 395.18 218.29 398.03 209.85 399.90 C 166.06 412.44 122.30 425.01 78.52 437.57 C 74.54 438.64 70.15 440.49 66.04 440.13 C 54.09 439.45 42.13 441.10 30.21 440.84 C 30.49 437.06 31.17 433.45 33.15 430.15 C 37.64 422.50 44.21 415.71 50.56 409.57 C 58.05 402.58 65.81 395.98 74.43 390.42 C 89.94 380.24 107.24 370.71 125.39 366.37 C 153.36 358.39 181.31 350.33 209.27 342.32 C 216.64 340.30 224.09 338.63 231.47 336.65 C 232.07 333.93 232.07 330.19 234.14 328.15 C 236.58 325.32 240.42 325.00 243.76 323.71 C 261.71 317.18 279.11 309.20 295.72 299.77 C 297.43 298.82 298.99 297.86 300.92 297.44 C 303.07 298.52 303.25 301.25 304.08 303.30 C 310.50 297.72 316.33 291.34 322.20 285.19 C 336.83 268.73 351.22 250.07 370.11 238.10 C 387.95 226.85 410.15 222.27 431.05 223.79 Z" fill="#004c5d" />
<path d="M 419.00 226.65 C 430.15 226.36 440.80 228.33 451.53 231.14 C 445.87 251.77 442.16 273.55 442.40 294.98 C 436.48 295.11 430.74 295.75 424.95 296.99 C 398.05 302.22 372.55 315.54 350.44 331.44 C 340.73 338.37 331.63 345.92 322.16 353.15 C 317.37 356.76 311.84 359.71 306.57 362.57 C 304.40 356.07 303.93 348.74 303.05 341.92 C 302.07 331.51 301.27 320.51 302.41 310.09 C 302.51 308.16 303.58 307.15 304.94 305.95 C 310.11 301.47 314.72 296.43 319.61 291.60 C 330.09 280.66 339.11 268.58 349.98 257.97 C 359.01 248.82 368.58 240.80 380.30 235.29 C 392.37 229.74 405.75 226.96 419.00 226.65 Z" fill="#72d1d9" />
<path d="M 453.68 227.93 C 465.64 231.25 477.06 236.78 487.43 243.57 C 495.13 248.52 502.56 254.57 508.14 261.87 C 510.46 265.10 513.17 269.60 512.87 273.69 C 510.75 276.28 508.06 278.33 506.01 281.00 C 498.51 290.40 490.97 299.77 483.43 309.15 C 481.77 310.98 479.99 312.96 477.86 314.22 C 475.08 315.23 474.86 311.65 474.06 309.92 C 473.05 306.25 471.00 303.26 467.68 301.33 C 460.90 297.26 451.71 296.69 443.99 296.66 L 443.98 294.80 C 452.51 294.80 462.93 294.79 470.30 299.70 C 474.57 302.40 476.36 306.48 478.31 310.92 C 487.16 301.18 495.18 290.68 503.50 280.50 C 505.47 278.08 507.98 275.84 509.49 273.10 C 507.02 264.32 499.34 257.08 492.30 251.71 C 480.46 242.83 466.98 235.59 452.70 231.61 C 453.04 230.39 453.36 229.16 453.68 227.93 Z" fill="#005667" />
<path d="M 579.53 229.43 C 584.60 231.31 588.59 236.12 591.26 240.67 C 590.41 241.82 589.56 242.98 588.75 244.16 C 588.46 244.59 588.18 245.02 587.89 245.44 C 586.40 244.10 584.80 242.22 582.87 241.57 C 581.75 241.92 580.69 242.47 579.61 242.91 C 581.90 243.48 584.22 243.21 585.69 245.30 C 589.07 249.72 590.85 255.55 592.14 260.89 C 593.10 265.51 594.01 271.00 592.63 275.59 C 591.62 278.13 589.06 278.66 586.91 277.12 C 583.06 274.04 580.51 269.11 578.02 264.92 C 577.07 261.94 575.98 259.01 575.06 256.03 C 573.57 251.25 573.24 245.97 573.06 240.99 C 573.08 238.08 573.05 234.82 574.12 232.07 C 575.08 229.89 577.18 228.69 579.53 229.43 Z" fill="#000000" />
<path d="M 452.70 231.61 C 466.98 235.59 480.46 242.83 492.30 251.71 C 499.34 257.08 507.02 264.32 509.49 273.10 C 507.98 275.84 505.47 278.08 503.50 280.50 C 495.18 290.68 487.16 301.18 478.31 310.92 C 476.36 306.48 474.57 302.40 470.30 299.70 C 462.93 294.79 452.51 294.80 443.98 294.80 C 443.70 273.53 447.11 252.09 452.70 231.61 Z" fill="#72d1d9" />
<path d="M 614.84 235.97 C 619.63 237.20 622.21 241.40 625.16 244.98 C 624.30 246.46 623.30 247.86 622.48 249.37 C 620.45 246.17 618.28 243.23 615.08 241.10 C 614.33 241.27 613.57 241.44 612.81 241.62 C 615.56 243.56 618.20 245.09 619.84 248.17 C 622.99 253.95 624.79 260.57 626.06 267.00 C 626.74 272.02 628.24 276.47 624.18 280.51 C 615.79 274.03 615.67 264.62 610.97 255.75 C 610.13 250.77 608.87 245.32 609.53 240.28 C 609.88 237.62 612.02 235.32 614.84 235.97 Z" fill="#000000" />
<path d="M 582.87 241.57 C 584.80 242.22 586.40 244.10 587.89 245.44 C 588.18 245.02 588.46 244.59 588.75 244.16 C 589.16 245.77 589.61 247.36 590.06 248.95 C 592.31 256.49 595.67 264.86 594.86 272.89 C 594.52 275.99 592.73 280.00 589.08 279.94 C 586.41 279.05 584.10 277.00 581.63 275.64 C 579.97 272.21 578.94 268.60 578.02 264.92 C 580.51 269.11 583.06 274.04 586.91 277.12 C 589.06 278.66 591.62 278.13 592.63 275.59 C 594.01 271.00 593.10 265.51 592.14 260.89 C 590.85 255.55 589.07 249.72 585.69 245.30 C 584.22 243.21 581.90 243.48 579.61 242.91 C 580.69 242.47 581.75 241.92 582.87 241.57 Z" fill="#044d5a" />
<path d="M 615.08 241.10 C 618.28 243.23 620.45 246.17 622.48 249.37 C 622.86 250.17 623.22 251.00 623.54 251.86 C 625.80 260.09 629.20 269.17 627.79 277.78 C 627.33 280.27 624.79 282.10 622.35 280.84 C 619.60 279.02 617.87 275.51 615.82 272.97 L 615.78 275.06 C 613.29 268.86 611.83 262.36 610.97 255.75 C 615.67 264.62 615.79 274.03 624.18 280.51 C 628.24 276.47 626.74 272.02 626.06 267.00 C 624.79 260.57 622.99 253.95 619.84 248.17 C 618.20 245.09 615.56 243.56 612.81 241.62 C 613.57 241.44 614.33 241.27 615.08 241.10 Z" fill="#05414d" />
<path d="M 590.06 248.95 C 591.95 249.39 593.84 249.84 595.73 250.27 C 597.99 258.07 600.98 265.94 600.90 274.00 C 600.92 278.20 600.58 282.42 597.81 285.80 C 595.86 288.00 592.66 288.46 590.19 286.84 C 586.28 284.29 583.50 279.83 581.63 275.64 C 584.10 277.00 586.41 279.05 589.08 279.94 C 592.73 280.00 594.52 275.99 594.86 272.89 C 595.67 264.86 592.31 256.49 590.06 248.95 Z" fill="#000000" />
<path d="M 623.54 251.86 C 625.38 251.90 627.21 251.86 629.04 251.86 C 633.48 261.74 637.04 273.91 634.72 284.73 C 633.86 288.88 630.21 292.31 625.88 290.13 C 620.84 287.05 617.66 280.47 615.78 275.06 L 615.82 272.97 C 617.87 275.51 619.60 279.02 622.35 280.84 C 624.79 282.10 627.33 280.27 627.79 277.78 C 629.20 269.17 625.80 260.09 623.54 251.86 Z" fill="#000000" />
<path d="M 667.13 258.98 C 671.81 264.84 675.41 271.74 680.69 277.34 C 682.53 278.62 684.71 279.31 686.77 280.14 C 691.56 282.02 696.12 284.62 699.99 288.03 C 703.46 291.12 705.98 295.10 708.57 298.92 C 704.90 298.18 701.86 298.28 698.18 299.06 C 699.13 298.35 700.07 297.64 701.00 296.93 C 693.34 296.97 685.94 295.49 678.35 294.79 C 677.43 296.08 676.60 297.47 675.57 298.68 L 674.48 299.30 C 677.26 289.68 675.86 279.84 672.39 270.61 C 670.87 266.62 668.64 262.98 667.13 258.98 Z" fill="#f2fafc" />
<path d="M 614.15 280.02 C 616.25 284.30 618.20 288.81 620.80 292.81 C 624.27 297.55 628.94 301.52 634.98 302.22 C 639.58 302.87 644.06 300.77 648.09 298.78 C 651.24 297.42 653.15 295.15 654.68 292.14 C 659.56 289.96 664.79 289.71 669.66 292.11 C 670.80 293.68 671.45 295.67 672.21 297.44 C 669.21 304.72 662.86 308.51 655.55 310.54 C 639.08 314.98 621.00 314.36 604.46 310.51 C 594.03 307.70 583.53 304.10 574.12 298.70 C 573.69 297.49 573.29 296.28 572.91 295.05 C 574.37 294.29 575.86 293.59 577.32 292.83 C 580.07 294.51 582.99 295.94 585.92 297.30 C 591.96 300.06 598.61 302.40 605.24 300.23 C 608.64 299.10 610.67 296.89 612.03 293.64 C 613.27 289.17 613.75 284.63 614.15 280.02 Z" fill="#00b2c6" />
<path d="M 640.29 290.68 C 642.78 290.55 645.90 290.38 648.13 291.63 C 649.61 292.34 649.62 294.75 650.05 296.17 C 649.42 297.06 648.77 297.93 648.09 298.78 C 644.06 300.77 639.58 302.87 634.98 302.22 C 628.94 301.52 624.27 297.55 620.80 292.81 C 627.25 291.52 633.81 291.81 640.29 290.68 Z" fill="#6accd8" />
<path d="M 599.15 292.78 C 601.98 293.23 604.46 292.42 607.25 292.44 C 608.84 292.50 610.53 293.17 612.03 293.64 C 610.67 296.89 608.64 299.10 605.24 300.23 C 598.61 302.40 591.96 300.06 585.92 297.30 C 586.04 296.38 586.16 295.46 586.28 294.54 C 590.66 294.56 594.87 292.75 599.15 292.78 Z" fill="#6eced9" />
<path d="M 560.44 295.01 C 565.65 298.29 571.07 301.33 576.53 304.15 C 574.31 304.37 572.22 304.15 570.02 303.84 C 567.18 303.39 564.45 304.19 561.63 304.64 C 555.08 305.87 548.46 306.01 541.87 307.05 C 538.05 307.66 534.22 308.09 530.36 308.41 C 530.77 310.79 531.04 313.17 531.06 315.58 C 529.21 312.55 527.19 309.16 526.33 305.69 C 525.78 303.23 526.47 301.15 526.96 298.77 C 528.25 298.59 529.54 298.42 530.83 298.25 C 540.64 296.77 550.55 295.74 560.44 295.01 Z" fill="#e3f3fa" />
<path d="M 678.35 294.79 C 685.94 295.49 693.34 296.97 701.00 296.93 C 700.07 297.64 699.13 298.35 698.18 299.06 C 701.86 298.28 704.90 298.18 708.57 298.92 C 711.70 303.89 713.57 309.46 714.41 315.25 C 709.95 309.68 707.21 303.79 700.97 299.74 C 697.03 300.47 693.07 301.22 689.19 302.23 C 687.50 302.56 686.86 303.81 685.79 304.99 C 680.10 306.20 675.05 304.02 669.49 306.13 C 671.34 303.98 672.87 301.63 674.48 299.30 L 675.57 298.68 C 676.60 297.47 677.43 296.08 678.35 294.79 Z" fill="#daf0f9" />
<path d="M 442.44 296.83 C 442.45 307.21 444.44 317.17 446.66 327.25 C 445.27 326.33 444.02 325.32 442.78 324.20 C 440.29 325.07 437.99 326.17 435.58 327.24 C 427.76 321.41 418.91 317.51 408.97 318.02 C 397.19 318.73 385.44 322.29 374.38 326.27 C 374.35 327.22 374.35 328.18 374.39 329.14 C 383.59 326.05 392.11 322.85 401.98 322.57 C 408.56 322.52 415.31 323.59 421.36 326.26 C 416.03 330.01 409.84 331.88 404.12 335.04 C 395.10 338.97 386.00 342.61 377.30 347.26 C 372.94 349.29 369.52 352.29 364.69 352.39 C 366.48 351.19 368.22 349.93 369.98 348.71 C 369.74 346.93 369.47 345.16 369.21 343.39 C 365.89 345.37 362.61 347.39 359.23 349.27 C 359.08 346.53 358.95 343.79 358.84 341.05 C 363.19 338.20 367.69 335.63 372.15 332.96 C 372.04 331.32 371.94 329.69 371.83 328.05 C 366.06 330.24 360.58 333.08 355.31 336.30 C 353.52 337.58 351.65 338.39 351.87 340.96 C 351.93 348.12 352.67 355.31 353.43 362.42 C 353.25 363.56 353.06 364.70 352.86 365.84 C 352.46 364.99 352.04 364.16 351.60 363.34 C 348.28 364.71 344.80 365.89 341.66 367.64 C 339.50 368.73 338.73 371.23 337.63 373.23 C 337.43 372.41 337.25 371.58 337.07 370.75 C 336.13 365.33 336.27 359.17 339.46 354.48 C 341.72 351.16 344.95 349.69 348.40 347.91 C 348.27 346.12 348.13 344.33 347.94 342.55 C 342.54 343.18 338.93 346.65 335.77 350.77 C 333.32 353.99 331.71 357.54 330.95 361.52 C 329.79 366.07 329.64 370.25 330.21 374.91 C 329.86 376.73 329.42 378.52 328.95 380.31 C 328.29 378.83 327.59 377.39 327.00 375.88 C 326.20 369.99 325.73 364.04 325.40 358.11 C 323.22 359.72 321.03 361.32 318.87 362.96 C 319.32 368.24 319.74 373.52 320.29 378.79 C 320.25 380.17 320.20 381.55 320.12 382.93 C 319.34 381.84 318.56 380.74 317.79 379.63 C 316.37 380.52 314.72 381.31 313.56 382.52 C 312.77 383.99 312.32 385.68 311.89 387.29 C 310.47 382.40 309.39 377.50 308.49 372.49 C 311.21 370.76 313.88 368.96 316.52 367.11 C 316.43 365.99 316.32 364.88 316.19 363.78 C 313.33 365.68 310.51 367.62 307.67 369.54 C 307.23 368.30 306.78 367.05 306.33 365.81 C 316.01 359.00 326.07 352.88 335.12 345.14 C 356.40 327.75 379.59 312.75 405.72 303.79 C 417.37 300.19 430.18 296.67 442.44 296.83 Z" fill="#fafdfe" />
<path d="M 443.99 296.66 C 451.71 296.69 460.90 297.26 467.68 301.33 C 471.00 303.26 473.05 306.25 474.06 309.92 C 474.09 310.96 474.11 311.99 474.11 313.03 C 473.51 312.18 472.90 311.34 472.28 310.51 C 464.92 313.42 457.26 315.11 449.78 317.58 C 449.16 319.87 448.50 322.16 447.93 324.47 C 445.72 315.29 444.11 306.14 443.99 296.66 Z" fill="#f7fbfd" />
<path d="M 299.85 299.11 C 300.50 299.84 301.12 300.59 301.71 301.36 C 298.35 325.09 302.01 347.24 306.21 370.55 C 300.17 373.77 294.41 377.45 288.28 380.30 C 272.26 387.97 255.66 394.94 238.57 399.85 L 237.79 400.06 C 234.95 380.14 231.27 360.17 233.81 339.78 C 234.42 336.42 234.74 332.48 236.46 329.48 C 238.45 327.42 241.62 326.26 244.25 325.22 C 258.91 319.83 273.36 313.59 287.07 306.08 C 291.39 303.87 295.48 301.22 299.85 299.11 Z" fill="#ffffff" />
<path d="M 524.87 298.95 C 524.74 302.95 524.76 306.71 526.63 310.35 C 531.57 320.37 539.02 329.28 547.42 336.60 C 560.85 348.43 578.00 356.08 595.10 360.92 C 613.59 366.20 633.68 367.96 652.69 364.68 C 658.02 363.83 663.06 362.05 668.26 360.71 C 666.06 364.15 663.31 366.70 659.85 368.85 C 652.98 373.12 645.35 376.26 637.64 378.65 C 615.49 385.90 590.50 387.26 567.34 387.92 C 568.82 383.35 569.88 378.85 568.96 374.01 C 567.59 363.90 560.03 355.62 551.79 350.21 C 540.84 343.20 528.03 338.60 515.02 337.73 C 510.65 337.37 506.38 338.08 502.03 338.19 C 499.85 337.64 497.82 336.24 495.85 335.17 C 492.35 333.14 488.67 331.55 484.99 329.89 C 489.62 318.64 497.54 309.00 508.55 303.56 C 513.76 300.95 519.20 299.98 524.87 298.95 Z" fill="#db355f" />
<path d="M 700.97 299.74 C 707.21 303.79 709.95 309.68 714.41 315.25 C 714.64 317.50 714.69 319.75 714.67 322.00 C 713.67 321.03 712.72 320.08 711.61 319.23 C 708.70 319.01 705.65 319.77 702.78 320.21 C 703.87 322.24 704.94 324.57 706.52 326.27 C 709.05 326.72 711.97 325.68 714.48 325.24 C 714.19 326.94 713.77 328.60 713.33 330.26 C 713.32 329.30 713.29 328.35 713.24 327.39 C 711.39 327.69 709.54 327.96 707.70 328.27 C 708.75 331.01 709.07 332.96 712.20 333.82 C 711.63 335.33 711.00 336.81 710.33 338.27 C 708.43 335.80 706.72 333.24 705.45 330.38 C 702.77 322.81 697.98 317.12 693.06 310.94 C 691.07 308.42 688.50 306.65 685.79 304.99 C 686.86 303.81 687.50 302.56 689.19 302.23 C 693.07 301.22 697.03 300.47 700.97 299.74 Z" fill="#00afc3" />
<path d="M 570.02 303.84 C 572.22 304.15 574.31 304.37 576.53 304.15 C 596.36 313.53 618.10 318.14 640.04 315.94 C 650.81 314.80 660.89 313.29 669.49 306.13 C 675.05 304.02 680.10 306.20 685.79 304.99 C 688.50 306.65 691.07 308.42 693.06 310.94 C 697.98 317.12 702.77 322.81 705.45 330.38 C 702.66 328.97 701.62 325.51 700.06 322.91 C 698.92 323.34 697.79 323.76 696.65 324.19 C 694.50 320.49 692.19 316.81 689.47 313.51 C 687.76 311.54 685.84 309.81 683.03 310.10 C 680.23 310.56 677.51 311.86 674.82 312.78 C 664.31 316.69 653.76 318.49 642.85 320.77 C 640.74 321.25 639.21 321.78 638.46 324.01 C 640.40 328.34 643.92 331.99 646.50 335.98 C 644.58 336.44 642.65 336.87 640.72 337.30 C 640.52 338.32 640.29 339.32 640.05 340.33 C 635.98 334.11 631.33 328.36 626.70 322.55 C 618.11 323.04 609.00 320.77 600.68 322.64 C 604.31 327.22 607.55 331.86 610.40 336.95 C 601.81 339.86 592.94 340.85 584.09 342.58 C 577.61 343.87 571.46 344.05 565.52 347.35 C 551.85 339.83 539.21 328.99 531.06 315.58 C 531.04 313.17 530.77 310.79 530.36 308.41 C 534.22 308.09 538.05 307.66 541.87 307.05 C 548.46 306.01 555.08 305.87 561.63 304.64 C 564.45 304.19 567.18 303.39 570.02 303.84 Z" fill="#c5e8f5" />
<path d="M 700.88 303.91 C 703.21 304.62 704.97 307.54 706.57 309.27 C 703.12 310.12 698.99 311.34 695.43 310.64 C 693.66 309.47 692.21 307.65 690.80 306.08 C 693.97 305.09 697.53 303.78 700.88 303.91 Z" fill="#79d2e4" />
<path d="M 490.90 306.19 C 492.14 306.74 493.31 307.50 494.48 308.20 C 490.88 311.69 487.73 315.61 485.18 319.93 C 484.59 319.52 484.01 319.12 483.42 318.72 C 477.06 319.37 470.82 322.04 464.65 323.70 C 460.92 324.88 457.01 325.81 453.45 327.45 C 451.68 328.16 450.83 330.57 449.87 332.10 C 449.10 329.59 448.46 327.04 447.93 324.47 C 448.50 322.16 449.16 319.87 449.78 317.58 C 457.26 315.11 464.92 313.42 472.28 310.51 C 472.90 311.34 473.51 312.18 474.11 313.03 C 474.11 311.99 474.09 310.96 474.06 309.92 C 474.86 311.65 475.08 315.23 477.86 314.22 C 479.99 312.96 481.77 310.98 483.43 309.15 C 485.95 308.21 488.33 306.91 490.90 306.19 Z" fill="#dff1fa" />
<path d="M 683.03 310.10 C 685.84 309.81 687.76 311.54 689.47 313.51 C 692.19 316.81 694.50 320.49 696.65 324.19 C 698.36 327.56 701.05 331.23 701.55 334.99 C 701.39 338.03 698.18 338.84 695.89 339.87 C 684.33 344.10 672.54 348.78 660.50 351.39 C 657.86 352.00 655.47 351.46 653.96 349.07 C 651.46 344.70 649.43 340.12 646.50 335.98 C 643.92 331.99 640.40 328.34 638.46 324.01 C 639.21 321.78 640.74 321.25 642.85 320.77 C 653.76 318.49 664.31 316.69 674.82 312.78 C 677.51 311.86 680.23 310.56 683.03 310.10 Z" fill="#c60301" />
<path d="M 707.75 311.08 C 709.02 313.00 710.12 315.00 711.21 317.02 C 708.11 317.64 704.42 318.55 701.29 317.84 C 699.36 316.61 698.02 314.25 696.73 312.40 C 700.36 311.83 704.09 311.25 707.75 311.08 Z" fill="#70cee2" />
<path d="M 288.94 312.67 C 293.16 314.58 292.25 318.41 292.42 322.25 L 291.33 321.69 C 290.93 319.69 290.49 317.71 290.02 315.73 C 279.32 320.41 268.75 325.40 258.00 329.99 C 254.30 331.62 250.15 332.62 246.70 334.72 C 244.50 336.20 244.11 338.46 244.00 340.94 C 243.53 353.50 244.61 366.13 246.43 378.55 C 246.91 382.06 249.11 385.92 253.23 384.30 C 264.83 380.57 276.42 376.52 287.57 371.56 C 289.50 370.56 292.53 369.29 292.80 366.83 C 293.62 360.63 292.30 353.90 292.22 347.61 L 293.11 348.40 C 293.85 354.94 296.03 362.27 294.83 368.75 C 292.11 372.51 286.65 374.55 282.59 376.59 C 273.18 380.51 263.38 383.80 253.68 386.95 C 251.48 387.99 249.12 385.79 247.46 384.51 C 245.07 382.69 245.04 379.29 244.49 376.56 C 242.94 364.27 241.69 351.63 242.53 339.24 C 242.66 335.64 245.13 332.70 248.44 331.48 C 259.41 327.61 270.10 322.77 280.41 317.41 C 283.33 315.99 285.92 313.84 288.94 312.67 Z" fill="#117483" />
<path d="M 681.53 313.56 C 682.57 313.36 684.71 312.19 685.40 313.43 C 690.83 319.56 694.74 327.30 698.05 334.75 C 687.59 339.07 676.80 342.72 665.93 345.88 C 663.19 346.69 660.44 347.37 657.61 347.83 C 655.11 342.44 652.34 336.98 648.86 332.15 C 646.94 329.45 645.02 326.76 643.24 323.98 C 656.18 320.90 669.00 318.20 681.53 313.56 Z" fill="#b4eaf9" />
<path d="M 290.02 315.73 C 290.49 317.71 290.93 319.69 291.33 321.69 C 290.82 330.24 290.54 339.17 292.22 347.61 C 292.30 353.90 293.62 360.63 292.80 366.83 C 292.53 369.29 289.50 370.56 287.57 371.56 C 276.42 376.52 264.83 380.57 253.23 384.30 C 249.11 385.92 246.91 382.06 246.43 378.55 C 244.61 366.13 243.53 353.50 244.00 340.94 C 244.11 338.46 244.50 336.20 246.70 334.72 C 250.15 332.62 254.30 331.62 258.00 329.99 C 268.75 325.40 279.32 320.41 290.02 315.73 Z" fill="#72d1d9" />
<path d="M 682.94 316.71 C 686.90 317.91 687.11 320.54 686.81 324.13 C 688.57 324.87 690.86 325.43 691.92 327.13 C 693.42 329.43 693.45 332.38 691.15 334.17 C 687.92 336.65 683.41 337.65 679.57 338.92 C 676.86 331.77 673.62 325.78 669.09 319.62 C 673.48 318.68 678.46 316.15 682.94 316.71 Z" fill="#cb0703" />
<path d="M 408.97 318.02 C 418.91 317.51 427.76 321.41 435.58 327.24 C 438.00 329.04 440.23 331.03 442.51 332.99 C 440.63 334.02 438.81 335.14 436.88 336.08 L 436.33 336.25 C 434.47 334.42 432.50 332.71 430.31 331.27 C 427.46 329.33 424.59 327.51 421.36 326.26 C 415.31 323.59 408.56 322.52 401.98 322.57 C 392.11 322.85 383.59 326.05 374.39 329.14 C 374.35 328.18 374.35 327.22 374.38 326.27 C 385.44 322.29 397.19 318.73 408.97 318.02 Z" fill="#ff0000" />
<path d="M 483.42 318.72 C 484.01 319.12 484.59 319.52 485.18 319.93 C 483.32 323.12 481.62 326.56 480.08 329.93 C 479.13 332.69 478.70 335.65 477.96 338.49 C 477.54 335.98 477.16 333.47 476.72 330.97 C 469.31 332.29 462.00 334.45 454.86 336.81 C 454.64 338.62 454.41 340.42 454.16 342.22 C 452.60 338.91 451.08 335.56 449.87 332.10 C 450.83 330.57 451.68 328.16 453.45 327.45 C 457.01 325.81 460.92 324.88 464.65 323.70 C 470.82 322.04 477.06 319.37 483.42 318.72 Z" fill="#c5e8f5" />
<path d="M 711.61 319.23 C 712.72 320.08 713.67 321.03 714.67 322.00 C 714.65 323.09 714.58 324.17 714.48 325.24 C 711.97 325.68 709.05 326.72 706.52 326.27 C 704.94 324.57 703.87 322.24 702.78 320.21 C 705.65 319.77 708.70 319.01 711.61 319.23 Z" fill="#64cbe0" />
<path d="M 680.03 319.89 C 681.33 320.53 682.31 321.92 683.28 322.96 C 681.91 323.70 680.59 324.45 679.14 325.02 C 677.97 323.70 677.02 322.25 676.03 320.78 C 677.36 320.43 678.69 320.13 680.03 319.89 Z" fill="#bfe6f5" />
<path d="M 291.33 321.69 L 292.42 322.25 C 292.10 331.00 292.91 339.66 293.11 348.40 L 292.22 347.61 C 290.54 339.17 290.82 330.24 291.33 321.69 Z" fill="#3a5b60" />
<path d="M 626.70 322.55 C 631.33 328.36 635.98 334.11 640.05 340.33 C 643.10 344.98 646.06 349.69 649.21 354.28 C 640.56 357.71 631.80 356.64 622.19 357.88 C 621.06 355.64 619.89 353.42 618.65 351.24 C 616.16 346.32 613.34 341.61 610.40 336.95 C 607.55 331.86 604.31 327.22 600.68 322.64 C 609.00 320.77 618.11 323.04 626.70 322.55 Z" fill="#00a0b9" />
<path d="M 662.86 322.39 C 667.05 322.49 670.64 325.92 672.67 329.32 C 674.38 332.98 675.62 337.13 672.29 340.33 C 669.12 343.08 663.93 343.61 660.01 344.91 C 656.72 337.66 652.77 331.27 647.96 324.95 C 652.77 323.97 657.94 322.13 662.86 322.39 Z" fill="#cb0703" />
<path d="M 605.60 323.62 C 611.70 323.79 617.94 323.86 623.95 324.98 C 627.02 325.30 628.34 328.48 630.01 330.67 C 623.99 330.09 618.00 330.15 611.97 330.02 C 608.35 330.41 607.03 326.19 605.60 323.62 Z" fill="#78d2e4" />
<path d="M 700.06 322.91 C 701.62 325.51 702.66 328.97 705.45 330.38 C 706.72 333.24 708.43 335.80 710.33 338.27 C 709.07 341.22 707.48 343.95 705.36 346.36 C 701.39 350.84 697.48 355.09 692.65 358.66 C 683.45 365.90 671.97 370.58 660.89 374.09 C 664.03 371.29 667.36 369.37 670.03 366.02 C 671.60 364.13 672.61 362.00 673.73 359.82 C 672.80 359.33 671.86 358.87 670.91 358.45 C 666.81 358.68 662.80 360.86 658.76 361.73 C 637.38 366.87 614.55 365.02 593.60 358.76 L 594.88 357.22 C 591.92 356.26 588.96 355.33 586.02 354.33 C 588.81 353.30 591.63 352.38 594.57 351.89 C 601.23 350.75 607.78 349.15 614.40 347.83 C 615.64 349.35 616.74 350.58 618.65 351.24 C 619.89 353.42 621.06 355.64 622.19 357.88 C 631.80 356.64 640.56 357.71 649.21 354.28 C 646.06 349.69 643.10 344.98 640.05 340.33 C 640.29 339.32 640.52 338.32 640.72 337.30 C 642.65 336.87 644.58 336.44 646.50 335.98 C 649.43 340.12 651.46 344.70 653.96 349.07 C 655.47 351.46 657.86 352.00 660.50 351.39 C 672.54 348.78 684.33 344.10 695.89 339.87 C 698.18 338.84 701.39 338.03 701.55 334.99 C 701.05 331.23 698.36 327.56 696.65 324.19 C 697.79 323.76 698.92 323.34 700.06 322.91 Z" fill="#acddf0" />
<path d="M 442.78 324.20 C 444.02 325.32 445.27 326.33 446.66 327.25 C 447.76 331.72 449.36 336.00 451.07 340.27 C 448.09 337.98 445.40 335.38 442.51 332.99 C 440.23 331.03 438.00 329.04 435.58 327.24 C 437.99 326.17 440.29 325.07 442.78 324.20 Z" fill="#d5eff8" />
<path d="M 421.36 326.26 C 424.59 327.51 427.46 329.33 430.31 331.27 C 421.36 336.57 411.03 340.24 401.59 344.61 C 393.57 348.45 385.43 351.99 377.49 356.02 C 377.57 357.27 377.65 358.52 377.73 359.76 C 377.23 359.15 376.75 358.53 376.28 357.90 C 375.79 357.22 375.28 356.56 374.75 355.91 C 369.93 357.54 365.68 360.33 361.11 362.77 C 360.79 361.48 360.47 360.20 360.21 358.89 C 360.08 357.64 359.97 356.39 359.88 355.13 C 361.49 354.23 363.11 353.34 364.69 352.39 C 369.52 352.29 372.94 349.29 377.30 347.26 C 386.00 342.61 395.10 338.97 404.12 335.04 C 409.84 331.88 416.03 330.01 421.36 326.26 Z" fill="#e6f5fa" />
<path d="M 656.21 325.95 C 659.02 325.69 661.59 325.18 664.00 327.04 C 666.57 329.11 668.71 332.53 668.68 335.91 C 668.96 338.32 665.91 339.03 664.30 340.10 C 661.88 335.20 658.94 330.67 656.21 325.95 Z" fill="#b7e3f3" />
<path d="M 713.24 327.39 C 713.29 328.35 713.32 329.30 713.33 330.26 C 713.00 331.46 712.63 332.65 712.20 333.82 C 709.07 332.96 708.75 331.01 707.70 328.27 C 709.54 327.96 711.39 327.69 713.24 327.39 Z" fill="#64cbe0" />
<path d="M 371.83 328.05 C 371.94 329.69 372.04 331.32 372.15 332.96 C 367.69 335.63 363.19 338.20 358.84 341.05 C 358.95 343.79 359.08 346.53 359.23 349.27 C 362.61 347.39 365.89 345.37 369.21 343.39 C 369.47 345.16 369.74 346.93 369.98 348.71 C 368.22 349.93 366.48 351.19 364.69 352.39 C 363.11 353.34 361.49 354.23 359.88 355.13 C 359.97 356.39 360.08 357.64 360.21 358.89 C 358.61 360.25 357.03 361.63 355.43 362.99 C 355.14 361.28 354.70 359.59 354.39 357.88 C 354.11 359.13 353.83 360.37 353.57 361.62 L 353.43 362.42 C 352.67 355.31 351.93 348.12 351.87 340.96 C 351.65 338.39 353.52 337.58 355.31 336.30 C 360.58 333.08 366.06 330.24 371.83 328.05 Z" fill="#8b9ea2" />
<path d="M 681.15 328.22 C 682.56 327.89 684.45 327.19 685.85 327.79 C 687.14 328.47 687.51 330.31 688.06 331.56 C 686.47 332.42 684.84 333.17 683.23 333.97 C 682.40 332.05 681.54 330.29 681.15 328.22 Z" fill="#b4e2f3" />
<path d="M 430.31 331.27 C 432.50 332.71 434.47 334.42 436.33 336.25 C 429.55 338.23 423.56 341.39 416.99 344.00 C 409.23 347.09 401.92 351.14 394.19 354.30 C 388.65 356.60 383.36 359.37 378.04 362.12 C 373.14 364.67 368.10 366.56 363.42 369.52 C 361.14 370.94 358.88 372.18 356.20 372.62 C 361.91 367.37 368.68 364.13 375.88 361.47 C 376.03 360.28 376.16 359.09 376.28 357.90 C 376.75 358.53 377.23 359.15 377.73 359.76 C 377.65 358.52 377.57 357.27 377.49 356.02 C 385.43 351.99 393.57 348.45 401.59 344.61 C 411.03 340.24 421.36 336.57 430.31 331.27 Z" fill="#d4eef8" />
<path d="M 476.72 330.97 C 477.16 333.47 477.54 335.98 477.96 338.49 C 477.26 347.14 478.95 355.66 484.42 362.57 C 487.94 367.29 492.57 370.29 497.09 373.91 C 487.26 369.84 478.87 363.92 470.37 357.63 C 465.72 354.20 461.56 350.18 456.87 346.80 C 455.90 345.32 454.96 343.81 454.16 342.22 C 454.41 340.42 454.64 338.62 454.86 336.81 C 462.00 334.45 469.31 332.29 476.72 330.97 Z" fill="#b5e1f2" />
<path d="M 610.77 331.14 C 615.87 331.41 620.94 331.85 626.04 331.89 C 627.80 332.00 629.80 331.91 631.45 332.57 C 633.06 333.95 634.20 336.07 635.32 337.85 C 628.25 338.28 621.20 338.19 614.13 337.92 C 612.97 335.68 611.83 333.43 610.77 331.14 Z" fill="#6fcee2" />
<path d="M 442.51 332.99 C 445.40 335.38 448.09 337.98 451.07 340.27 C 453.72 345.62 456.68 350.74 459.00 356.23 C 452.70 351.56 447.34 345.62 441.44 340.44 C 439.89 339.01 438.39 337.54 436.88 336.08 C 438.81 335.14 440.63 334.02 442.51 332.99 Z" fill="#e70000" />
<path d="M 483.52 333.41 C 487.61 334.57 491.47 336.77 495.16 338.84 C 501.97 342.83 508.26 347.59 513.66 353.36 C 517.07 357.01 518.80 361.14 521.50 365.29 C 520.29 359.83 518.23 354.65 514.81 350.19 C 512.07 346.57 508.75 344.01 505.58 340.84 C 517.53 339.18 530.02 343.05 540.62 348.39 C 548.44 352.63 555.98 358.69 560.66 366.34 C 564.72 373.11 564.48 380.85 562.04 388.14 C 552.38 388.47 542.38 386.07 532.96 383.98 C 524.07 381.90 515.56 379.92 507.43 375.59 C 498.66 371.19 488.70 364.84 484.21 355.79 C 480.56 348.52 481.42 340.98 483.52 333.41 Z" fill="#ff5c7b" />
<path d="M 436.33 336.25 L 436.88 336.08 C 438.39 337.54 439.89 339.01 441.44 340.44 C 437.20 343.84 432.29 345.25 427.45 347.51 C 420.01 350.83 412.37 353.37 405.13 357.18 C 399.13 360.41 392.64 362.45 386.64 365.69 C 372.85 372.93 358.39 378.55 344.48 385.48 C 339.43 387.79 334.26 389.10 329.83 392.64 C 329.69 392.11 329.56 391.58 329.42 391.05 C 327.98 386.07 327.56 381.00 327.00 375.88 C 327.59 377.39 328.29 378.83 328.95 380.31 C 329.42 378.52 329.86 376.73 330.21 374.91 C 331.04 378.14 332.09 382.06 335.10 383.95 C 337.39 385.39 340.01 384.39 342.11 383.12 C 344.83 381.38 347.34 379.32 349.94 377.41 C 353.15 375.28 353.89 372.71 354.24 368.99 C 354.83 370.24 355.47 371.46 356.20 372.62 C 358.88 372.18 361.14 370.94 363.42 369.52 C 368.10 366.56 373.14 364.67 378.04 362.12 C 383.36 359.37 388.65 356.60 394.19 354.30 C 401.92 351.14 409.23 347.09 416.99 344.00 C 423.56 341.39 429.55 338.23 436.33 336.25 Z" fill="#c2e7f4" />
<path d="M 610.40 336.95 C 613.34 341.61 616.16 346.32 618.65 351.24 C 616.74 350.58 615.64 349.35 614.40 347.83 C 607.78 349.15 601.23 350.75 594.57 351.89 C 591.63 352.38 588.81 353.30 586.02 354.33 C 588.96 355.33 591.92 356.26 594.88 357.22 L 593.60 358.76 C 583.82 356.03 574.45 352.17 565.52 347.35 C 571.46 344.05 577.61 343.87 584.09 342.58 C 592.94 340.85 601.81 339.86 610.40 336.95 Z" fill="#b7e2f2" />
<path d="M 230.82 338.94 C 230.53 346.65 230.13 354.28 230.70 362.00 C 231.16 371.69 233.13 381.13 234.15 390.75 C 221.70 393.91 209.40 397.57 197.05 401.10 C 154.85 413.21 112.63 425.26 70.45 437.45 C 65.43 438.86 60.19 438.36 55.00 438.38 C 47.49 438.22 40.18 438.82 32.69 437.97 C 33.55 435.17 34.39 432.46 35.96 429.96 C 42.39 420.01 50.71 412.22 59.92 404.90 C 72.18 395.44 85.14 387.01 98.87 379.83 C 108.60 374.18 119.01 369.83 129.85 366.83 C 156.54 359.24 183.25 351.50 209.92 343.89 C 216.89 342.24 223.85 340.55 230.82 338.94 Z" fill="#72d1d9" />
<path d="M 441.44 340.44 C 447.34 345.62 452.70 351.56 459.00 356.23 C 463.84 362.07 469.44 366.99 475.16 371.93 C 468.04 371.39 461.13 370.53 453.96 371.05 C 438.96 371.62 423.44 374.13 409.91 380.93 C 399.41 386.32 391.67 394.19 383.56 402.56 C 372.73 413.46 361.22 426.05 347.95 433.95 C 341.01 437.84 333.51 441.27 326.06 444.05 C 313.23 448.00 300.19 451.31 287.39 455.34 C 277.33 459.31 266.91 461.64 256.52 464.54 C 251.50 465.90 246.96 464.77 241.94 464.55 C 238.88 464.92 235.88 466.08 232.90 466.88 C 171.52 484.54 110.08 502.09 48.70 519.77 C 44.50 520.88 40.37 521.54 36.23 519.77 C 30.66 517.43 25.52 513.77 21.13 509.65 C 20.68 508.00 20.22 506.36 19.66 504.75 C 27.14 499.09 35.60 496.14 44.37 493.16 C 54.67 490.19 65.02 487.34 75.21 484.02 C 81.89 481.94 88.63 480.72 95.17 478.16 C 98.93 476.64 102.87 475.86 106.73 474.65 C 119.11 470.18 131.94 467.05 144.43 462.85 C 158.16 459.09 171.64 454.60 185.50 451.31 C 200.65 446.88 215.54 441.41 230.32 435.88 C 234.68 434.25 238.90 433.05 243.60 433.81 C 245.26 439.25 245.62 446.01 250.22 449.79 C 254.10 453.42 259.31 453.96 264.19 452.16 C 280.97 446.46 298.02 441.61 314.74 435.76 C 317.63 434.81 320.68 434.54 323.56 433.60 C 326.66 432.08 327.69 427.80 326.14 424.81 C 322.29 416.95 318.66 408.77 316.15 400.36 C 316.29 397.95 316.46 395.55 316.55 393.14 C 317.74 392.83 318.93 392.52 320.12 392.22 C 320.77 393.17 321.45 394.11 322.16 395.03 L 322.25 392.80 C 322.51 393.79 322.78 394.78 323.07 395.77 C 325.55 394.49 327.93 393.58 329.42 391.05 C 329.56 391.58 329.69 392.11 329.83 392.64 C 334.26 389.10 339.43 387.79 344.48 385.48 C 358.39 378.55 372.85 372.93 386.64 365.69 C 392.64 362.45 399.13 360.41 405.13 357.18 C 412.37 353.37 420.01 350.83 427.45 347.51 C 432.29 345.25 437.20 343.84 441.44 340.44 Z" fill="#aedff1" />
<path d="M 615.71 340.11 C 622.80 339.79 629.84 339.95 636.94 339.99 C 638.25 341.91 639.56 343.84 640.87 345.77 C 634.83 346.34 628.76 347.34 622.69 347.44 C 618.95 347.85 617.22 342.70 615.71 340.11 Z" fill="#65cbe0" />
<path d="M 347.94 342.55 C 348.13 344.33 348.27 346.12 348.40 347.91 C 344.95 349.69 341.72 351.16 339.46 354.48 C 336.27 359.17 336.13 365.33 337.07 370.75 C 335.36 371.77 333.63 372.79 331.92 373.83 C 331.94 369.63 331.64 365.66 330.95 361.52 C 331.71 357.54 333.32 353.99 335.77 350.77 C 338.93 346.65 342.54 343.18 347.94 342.55 Z" fill="#8c9fa3" />
<path d="M 456.87 346.80 C 461.56 350.18 465.72 354.20 470.37 357.63 C 478.87 363.92 487.26 369.84 497.09 373.91 L 498.33 374.88 C 492.87 374.90 487.49 374.42 482.22 372.98 C 479.54 371.06 476.82 369.40 473.79 368.08 C 466.39 362.31 460.07 355.83 456.87 346.80 Z" fill="#e10000" />
<path d="M 641.84 347.31 C 643.11 348.98 644.24 350.89 645.24 352.73 C 638.19 353.77 630.45 354.92 623.39 353.70 C 622.36 352.35 621.53 350.76 620.70 349.28 C 627.77 348.81 634.79 347.95 641.84 347.31 Z" fill="#64cbe0" />
<path d="M 374.75 355.91 C 375.28 356.56 375.79 357.22 376.28 357.90 C 376.16 359.09 376.03 360.28 375.88 361.47 C 368.68 364.13 361.91 367.37 356.20 372.62 C 355.47 371.46 354.83 370.24 354.24 368.99 C 353.98 366.54 353.71 364.08 353.57 361.62 C 353.83 360.37 354.11 359.13 354.39 357.88 C 354.70 359.59 355.14 361.28 355.43 362.99 C 357.03 361.63 358.61 360.25 360.21 358.89 C 360.47 360.20 360.79 361.48 361.11 362.77 C 365.68 360.33 369.93 357.54 374.75 355.91 Z" fill="#7999a1" />
<path d="M 325.40 358.11 C 325.73 364.04 326.20 369.99 327.00 375.88 C 327.56 381.00 327.98 386.07 329.42 391.05 C 327.93 393.58 325.55 394.49 323.07 395.77 C 322.78 394.78 322.51 393.79 322.25 392.80 C 321.76 388.10 320.98 383.46 320.29 378.79 C 319.74 373.52 319.32 368.24 318.87 362.96 C 321.03 361.32 323.22 359.72 325.40 358.11 Z" fill="#7d989e" />
<path d="M 330.95 361.52 C 331.64 365.66 331.94 369.63 331.92 373.83 C 333.63 372.79 335.36 371.77 337.07 370.75 C 337.25 371.58 337.43 372.41 337.63 373.23 C 338.60 374.62 339.76 377.32 341.86 376.80 C 345.36 375.57 348.21 372.12 351.14 369.88 C 351.25 372.57 351.06 374.93 349.94 377.41 C 347.34 379.32 344.83 381.38 342.11 383.12 C 340.01 384.39 337.39 385.39 335.10 383.95 C 332.09 382.06 331.04 378.14 330.21 374.91 C 329.64 370.25 329.79 366.07 330.95 361.52 Z" fill="#72939c" />
<path d="M 353.43 362.42 L 353.57 361.62 C 353.71 364.08 353.98 366.54 354.24 368.99 C 353.89 372.71 353.15 375.28 349.94 377.41 C 351.06 374.93 351.25 372.57 351.14 369.88 C 348.21 372.12 345.36 375.57 341.86 376.80 C 339.76 377.32 338.60 374.62 337.63 373.23 C 338.73 371.23 339.50 368.73 341.66 367.64 C 344.80 365.89 348.28 364.71 351.60 363.34 C 352.04 364.16 352.46 364.99 352.86 365.84 C 353.06 364.70 353.25 363.56 353.43 362.42 Z" fill="#def1fa" />
<path d="M 316.19 363.78 C 316.32 364.88 316.43 365.99 316.52 367.11 C 313.88 368.96 311.21 370.76 308.49 372.49 C 308.25 371.50 307.97 370.51 307.67 369.54 C 310.51 367.62 313.33 365.68 316.19 363.78 Z" fill="#fa1c1c" />
<path d="M 473.79 368.08 C 476.82 369.40 479.54 371.06 482.22 372.98 C 478.65 372.46 476.30 370.46 473.79 368.08 Z" fill="#a96e73" />
<path d="M 306.21 370.55 C 306.44 371.60 306.68 372.64 306.93 373.68 C 297.73 378.89 289.36 384.56 279.56 388.65 C 271.62 391.96 263.64 395.96 255.42 398.44 C 249.95 400.14 244.60 402.18 239.13 403.90 L 239.07 401.77 L 238.57 399.85 C 255.66 394.94 272.26 387.97 288.28 380.30 C 294.41 377.45 300.17 373.77 306.21 370.55 Z" fill="#ff0000" />
<path d="M 306.93 373.68 C 308.21 378.13 309.40 382.59 310.62 387.05 C 309.52 386.59 308.42 386.12 307.31 385.71 C 301.15 386.69 295.13 390.01 289.46 392.52 C 281.76 395.96 273.84 398.89 266.04 402.09 C 258.43 405.20 250.50 406.89 242.70 409.39 C 242.07 411.05 241.53 412.74 240.94 414.42 C 240.18 410.87 239.28 407.56 239.13 403.90 C 244.60 402.18 249.95 400.14 255.42 398.44 C 263.64 395.96 271.62 391.96 279.56 388.65 C 289.36 384.56 297.73 378.89 306.93 373.68 Z" fill="#ebf7fb" />
<path d="M 463.57 374.26 C 461.21 380.92 455.01 384.99 448.93 387.94 C 442.28 390.93 433.81 393.32 426.59 391.37 C 422.47 390.26 419.10 386.15 420.82 381.81 C 421.58 379.61 423.20 378.87 425.30 378.31 C 437.81 375.00 450.66 373.82 463.57 374.26 Z" fill="#00a5b8" />
<path d="M 465.92 374.39 C 469.71 374.49 473.46 374.92 477.21 375.48 C 473.02 383.14 465.73 388.99 458.28 393.28 C 449.91 397.79 439.53 401.22 429.95 399.99 C 425.35 399.47 421.09 397.42 418.76 393.26 C 417.36 390.81 417.76 388.42 417.79 385.73 C 419.82 388.26 421.40 391.19 424.53 392.50 C 428.46 394.15 433.19 394.16 437.34 393.43 C 444.29 392.04 451.39 389.39 457.06 385.07 C 461.02 382.28 463.45 378.45 465.92 374.39 Z" fill="#33b6ce" />
<path d="M 480.64 376.57 C 484.63 376.42 488.84 378.23 492.63 379.37 C 505.50 383.68 519.05 386.89 532.11 390.55 C 526.63 392.42 520.98 393.86 515.41 395.45 C 500.26 399.47 485.38 404.41 470.19 408.28 C 453.67 413.12 437.08 417.70 420.55 422.53 C 409.64 425.39 398.98 429.05 388.11 432.04 C 391.88 425.32 395.24 419.05 394.89 411.06 C 394.75 406.80 392.79 403.40 390.40 400.02 C 397.29 393.03 404.67 386.76 413.67 382.62 C 413.25 386.24 412.49 389.71 413.73 393.26 C 415.13 397.51 418.45 400.72 422.50 402.51 C 427.65 404.83 433.84 404.98 439.36 404.22 C 452.77 401.83 465.32 395.64 474.69 385.67 C 477.29 382.96 478.67 379.69 480.64 376.57 Z" fill="#008fa6" />
<path d="M 320.29 378.79 C 320.98 383.46 321.76 388.10 322.25 392.80 L 322.16 395.03 C 321.45 394.11 320.77 393.17 320.12 392.22 C 318.93 392.52 317.74 392.83 316.55 393.14 C 316.46 395.55 316.29 397.95 316.15 400.36 C 314.64 396.02 313.02 391.75 311.89 387.29 C 312.32 385.68 312.77 383.99 313.56 382.52 C 314.72 381.31 316.37 380.52 317.79 379.63 C 318.56 380.74 319.34 381.84 320.12 382.93 C 320.20 381.55 320.25 380.17 320.29 378.79 Z" fill="#d3eef8" />
<path d="M 307.31 385.71 C 308.42 386.12 309.52 386.59 310.62 387.05 C 311.76 391.25 313.15 395.38 314.38 399.55 L 313.60 400.86 C 312.67 398.94 311.78 397.00 310.81 395.09 C 302.44 399.46 293.69 402.60 284.84 405.78 C 277.76 408.79 270.42 410.82 263.08 413.05 C 256.88 415.29 250.55 417.04 244.29 419.10 C 244.50 422.19 244.44 425.20 244.18 428.29 C 243.05 423.68 241.85 419.09 240.94 414.42 C 241.53 412.74 242.07 411.05 242.70 409.39 C 250.50 406.89 258.43 405.20 266.04 402.09 C 273.84 398.89 281.76 395.96 289.46 392.52 C 295.13 390.01 301.15 386.69 307.31 385.71 Z" fill="#d4eef8" />
<path d="M 550.11 391.91 C 545.75 398.72 538.65 402.24 530.95 403.93 C 521.77 405.70 511.87 404.62 502.70 403.14 C 505.19 401.95 507.78 401.09 510.44 400.39 C 520.31 397.75 530.10 394.76 539.93 391.97 C 543.38 390.95 546.63 391.47 550.11 391.91 Z" fill="#00a8bc" />
<path d="M 310.81 395.09 C 311.78 397.00 312.67 398.94 313.60 400.86 L 314.38 399.55 C 315.69 403.32 317.07 407.09 318.53 410.80 L 317.25 411.50 C 316.21 409.37 315.20 407.24 314.00 405.20 C 300.11 410.40 286.30 415.92 272.51 421.39 C 263.81 424.32 255.16 427.38 246.50 430.41 C 247.35 433.80 247.73 436.86 247.20 440.35 C 245.96 436.38 244.83 432.40 244.18 428.29 C 244.44 425.20 244.50 422.19 244.29 419.10 C 250.55 417.04 256.88 415.29 263.08 413.05 C 270.42 410.82 277.76 408.79 284.84 405.78 C 293.69 402.60 302.44 399.46 310.81 395.09 Z" fill="#b9e3f2" />
<path d="M 237.79 400.06 L 238.57 399.85 L 239.07 401.77 C 238.14 401.63 237.72 401.07 237.79 400.06 Z" fill="#790001" />
<path d="M 236.35 400.49 C 236.63 401.85 236.91 403.22 237.18 404.58 C 232.01 406.38 226.90 408.25 221.60 409.61 C 210.06 412.46 198.69 415.99 187.25 419.22 C 138.03 433.35 88.81 447.46 39.59 461.58 C 30.58 464.27 21.43 466.56 12.51 469.51 C 10.49 470.18 8.42 470.62 6.33 470.96 C 6.45 469.67 6.54 468.38 6.59 467.09 C 11.62 465.79 16.47 464.23 21.33 462.40 C 28.55 460.17 35.86 458.16 43.15 456.17 C 57.68 452.74 71.60 447.38 86.14 444.02 C 97.95 440.61 109.80 437.37 121.51 433.64 C 128.40 432.13 134.95 429.61 141.76 427.80 C 162.50 421.84 183.25 415.89 204.01 409.96 C 214.98 407.38 225.62 403.90 236.35 400.49 Z" fill="#ff0000" />
<path d="M 388.96 401.92 C 390.51 405.14 391.64 408.39 391.30 412.02 C 390.72 418.67 387.48 425.22 383.53 430.51 C 380.07 435.28 375.08 438.75 370.32 442.31 C 363.81 446.43 355.78 449.39 348.00 449.09 C 344.52 448.93 342.18 445.39 342.88 442.11 C 343.36 440.69 344.02 439.40 344.70 438.07 C 347.35 439.55 349.76 440.94 352.92 440.66 C 366.97 439.73 380.61 430.43 384.91 416.73 C 386.21 412.79 385.59 409.13 385.10 405.13 C 386.38 404.05 387.63 402.95 388.96 401.92 Z" fill="#33b6ce" />
<path d="M 237.18 404.58 C 237.60 406.65 237.99 408.72 238.34 410.80 L 238.37 412.75 C 237.39 412.03 236.40 411.30 235.40 410.61 C 219.35 412.63 205.28 418.84 189.82 422.98 C 183.30 425.22 176.91 427.62 170.25 429.44 C 162.31 432.33 154.44 435.25 146.28 437.53 C 138.78 440.14 131.33 442.73 123.61 444.64 C 117.67 446.10 111.97 448.23 106.15 450.08 C 95.77 452.96 85.62 456.55 75.24 459.41 C 67.73 461.42 60.50 464.22 52.94 466.02 C 37.54 469.96 22.82 475.98 8.79 483.41 C 8.64 485.76 8.43 488.10 8.30 490.45 C 5.97 484.39 4.94 477.35 6.33 470.96 C 8.42 470.62 10.49 470.18 12.51 469.51 C 21.43 466.56 30.58 464.27 39.59 461.58 C 88.81 447.46 138.03 433.35 187.25 419.22 C 198.69 415.99 210.06 412.46 221.60 409.61 C 226.90 408.25 232.01 406.38 237.18 404.58 Z" fill="#f1f9fc" />
<path d="M 314.00 405.20 C 315.20 407.24 316.21 409.37 317.25 411.50 L 318.53 410.80 C 320.41 415.77 323.28 420.92 324.03 426.12 C 324.51 428.60 322.52 431.29 320.34 432.29 C 301.95 438.80 283.57 444.02 265.09 450.07 C 257.69 452.39 248.25 448.80 247.20 440.35 C 247.73 436.86 247.35 433.80 246.50 430.41 C 255.16 427.38 263.81 424.32 272.51 421.39 C 286.30 415.92 300.11 410.40 314.00 405.20 Z" fill="#aedff1" />
<path d="M 383.85 407.63 C 385.11 418.55 377.32 429.07 368.11 434.11 C 361.94 437.37 354.35 440.03 347.37 438.00 C 350.78 435.05 354.67 432.92 358.31 430.30 C 363.35 426.71 367.09 421.80 371.97 417.95 C 376.09 414.70 379.43 410.43 383.85 407.63 Z" fill="#00a5b8" />
<path d="M 235.40 410.61 C 236.40 411.30 237.39 412.03 238.37 412.75 L 238.34 410.80 C 239.07 414.10 239.88 417.38 240.51 420.70 L 240.26 422.81 C 239.38 421.88 238.51 420.94 237.64 420.00 C 222.67 424.69 207.76 429.64 193.04 435.07 C 184.49 438.46 175.62 440.80 167.00 444.02 C 146.45 450.16 125.29 454.41 104.79 460.77 C 90.80 464.78 76.81 468.82 62.79 472.75 C 56.48 474.20 50.40 476.34 44.20 478.16 C 33.34 480.97 22.92 485.54 13.37 491.41 C 11.57 492.41 11.44 494.67 10.79 496.44 C 9.85 494.49 9.02 492.49 8.30 490.45 C 8.43 488.10 8.64 485.76 8.79 483.41 C 22.82 475.98 37.54 469.96 52.94 466.02 C 60.50 464.22 67.73 461.42 75.24 459.41 C 85.62 456.55 95.77 452.96 106.15 450.08 C 111.97 448.23 117.67 446.10 123.61 444.64 C 131.33 442.73 138.78 440.14 146.28 437.53 C 154.44 435.25 162.31 432.33 170.25 429.44 C 176.91 427.62 183.30 425.22 189.82 422.98 C 205.28 418.84 219.35 412.63 235.40 410.61 Z" fill="#d5eef8" />
<path d="M 465.08 413.78 C 462.18 417.22 458.90 419.84 454.88 421.87 C 443.09 427.91 428.89 429.46 415.87 427.89 C 422.85 425.18 430.27 423.67 437.41 421.41 C 446.64 418.94 455.74 415.78 465.08 413.78 Z" fill="#00abbe" />
<path d="M 237.64 420.00 C 238.51 420.94 239.38 421.88 240.26 422.81 L 240.51 420.70 C 241.58 425.06 242.54 429.45 243.60 433.81 C 238.90 433.05 234.68 434.25 230.32 435.88 C 215.54 441.41 200.65 446.88 185.50 451.31 C 171.64 454.60 158.16 459.09 144.43 462.85 C 131.94 467.05 119.11 470.18 106.73 474.65 C 102.87 475.86 98.93 476.64 95.17 478.16 C 88.63 480.72 81.89 481.94 75.21 484.02 C 65.02 487.34 54.67 490.19 44.37 493.16 C 35.60 496.14 27.14 499.09 19.66 504.75 C 20.22 506.36 20.68 508.00 21.13 509.65 C 16.80 505.89 13.70 501.33 10.79 496.44 C 11.44 494.67 11.57 492.41 13.37 491.41 C 22.92 485.54 33.34 480.97 44.20 478.16 C 50.40 476.34 56.48 474.20 62.79 472.75 C 76.81 468.82 90.80 464.78 104.79 460.77 C 125.29 454.41 146.45 450.16 167.00 444.02 C 175.62 440.80 184.49 438.46 193.04 435.07 C 207.76 429.64 222.67 424.69 237.64 420.00 Z" fill="#bae3f2" />
<path d="M 340.63 440.74 C 340.22 443.32 339.81 445.89 339.45 448.48 C 252.64 473.25 165.89 498.26 79.11 523.11 C 75.25 524.08 71.11 525.99 67.13 525.95 C 62.82 524.89 58.75 522.55 54.75 520.65 C 60.26 518.62 65.86 517.24 71.56 515.57 C 127.00 499.67 182.44 483.77 237.86 467.85 C 243.31 466.28 248.44 468.74 253.99 467.01 C 277.15 460.47 300.17 453.47 323.48 447.47 C 329.62 445.98 334.87 443.21 340.63 440.74 Z" fill="#008fa6" />
<path d="M 283.21 469.07 C 278.24 472.46 272.61 474.08 266.60 474.03 C 271.74 471.42 277.55 470.01 283.21 469.07 Z" fill="#008394" />
<path d="M 238.10 481.72 C 233.99 488.25 228.73 494.00 222.26 498.25 C 210.07 506.23 191.71 507.47 179.87 498.15 C 182.77 497.66 185.13 496.39 187.88 498.11 C 199.64 505.07 216.00 500.71 224.03 490.05 C 225.50 488.24 226.65 485.98 228.41 484.44 C 231.48 483.16 234.88 482.53 238.10 481.72 Z" fill="#33b7cf" />
<path d="M 225.37 485.75 C 218.39 498.54 199.92 504.61 187.41 496.29 C 196.87 493.15 206.30 490.65 215.85 487.82 C 218.97 486.90 222.15 486.25 225.37 485.75 Z" fill="#00a5b8" />
<path d="M 146.77 507.85 C 140.51 517.72 131.08 526.54 119.51 529.48 C 108.91 532.35 97.62 531.14 88.55 524.70 C 90.83 523.82 93.36 522.57 95.83 522.51 C 97.20 522.90 98.51 523.57 99.82 524.14 C 109.34 528.80 121.51 526.20 129.28 519.28 C 132.26 516.84 134.24 513.59 136.92 510.90 C 139.77 509.17 143.55 508.68 146.77 507.85 Z" fill="#33b6ce" />
<path d="M 134.32 511.39 C 130.38 517.01 125.27 521.61 118.59 523.63 C 111.74 525.82 104.67 525.37 98.33 521.89 C 103.88 519.68 109.85 518.35 115.60 516.61 C 121.84 514.88 128.02 512.86 134.32 511.39 Z" fill="#00a5b8" />
</svg>