<?xml version="1.0" standalone="no"?>
<!DOCTYPE svg PUBLIC "-//W3C//DTD SVG 20010904//EN"
 "http://www.w3.org/TR/2001/REC-SVG-20010904/DTD/svg10.dtd">
<svg version="1.0" xmlns="http://www.w3.org/2000/svg"
 width="720.000000pt" height="720.000000pt" viewBox="0 0 720.000000 720.000000"
 preserveAspectRatio="xMidYMid meet">
<metadata>
Created by potrace 1.14, written by Peter Selinger 2001-2017
</metadata>
<g transform="translate(0.000000,720.000000) scale(0.100000,-0.100000)"
fill="#000000" stroke="none">
<path d="M5100 6255 c-153 -34 -328 -159 -364 -258 -8 -23 -42 -114 -75 -202
-59 -158 -60 -160 -88 -157 -15 2 -41 10 -57 18 -38 18 -48 7 -40 -44 6 -39
10 -43 49 -55 l41 -12 -49 -135 c-27 -74 -80 -234 -118 -355 -66 -210 -152
-476 -165 -509 -4 -11 6 -22 30 -37 l36 -21 -140 -78 c-269 -150 -370 -232
-770 -625 -401 -394 -592 -529 -880 -625 -69 -22 -249 -73 -400 -111 -558
-143 -799 -226 -1120 -385 -344 -170 -572 -358 -791 -649 -209 -278 -252 -555
-119 -770 32 -52 151 -158 218 -193 64 -34 104 -39 162 -18 33 12 40 10 123
-30 95 -46 90 -46 208 -8 46 15 47 14 95 -15 192 -119 448 -47 589 165 40 60
64 74 128 74 23 0 69 11 101 25 l59 24 28 -20 c106 -75 273 -82 407 -17 63 31
169 131 208 197 25 42 123 72 244 76 92 2 162 24 232 70 42 28 135 60 377 131
135 39 158 44 183 33 80 -33 247 22 355 116 45 39 68 50 168 80 108 32 118 33
150 19 46 -19 185 -18 283 1 130 26 228 83 299 173 13 16 54 33 152 60 122 35
137 37 162 25 15 -8 68 -19 118 -24 158 -19 293 20 369 106 l39 45 199 4 c184
4 382 23 493 47 113 24 505 149 614 195 101 42 143 71 217 150 108 116 147
217 137 354 -15 178 -103 303 -261 369 -41 17 -78 31 -83 31 -17 0 -83 98
-173 260 -196 350 -322 505 -544 664 -141 101 -354 197 -534 241 -68 16 -72
19 -57 34 8 10 15 20 15 24 0 3 -26 27 -57 53 -72 58 -236 234 -312 334 -31
41 -78 111 -104 155 -49 84 -127 246 -127 263 0 5 16 35 35 67 41 70 59 143
53 221 -4 50 -13 79 -46 148 -12 24 58 -38 82 -73 64 -92 106 -274 87 -377 -6
-32 -9 -60 -6 -62 8 -8 118 27 127 40 13 21 9 130 -7 193 -28 107 -70 182
-142 254 -85 84 -142 113 -239 119 -72 4 -73 5 -51 22 43 33 148 80 214 96
102 24 224 16 296 -20 31 -15 70 -44 86 -63 36 -43 44 -34 39 48 -3 48 -6 56
-37 76 -77 52 -237 74 -351 48z m-80 -262 c152 -75 250 -249 250 -441 l0 -68
-38 -10 -38 -10 1 115 c0 123 -10 162 -69 280 -30 59 -102 125 -159 145 -25 9
-34 15 -21 15 11 1 44 -11 74 -26z m-153 -120 c4 -69 -3 -60 -15 20 -6 40 -6
55 1 48 6 -6 12 -36 14 -68z m-63 -20 c7 -61 6 -63 -17 -63 -52 0 -64 57 -20
102 14 15 27 27 28 25 1 -1 5 -30 9 -64z m141 -159 c-17 -59 -29 -68 -39 -29
-4 16 1 39 14 65 11 22 24 61 28 87 l7 48 3 -58 c2 -33 -4 -82 -13 -113z
m-225 -34 c0 -10 -68 -26 -76 -17 -4 3 -3 10 1 16 8 14 75 15 75 1z m-5 -100
c-11 -18 -66 -41 -91 -38 -44 5 -27 23 33 34 32 6 59 12 61 13 2 0 0 -4 -3 -9z
m129 -157 c-9 -42 -58 -83 -98 -83 -67 0 -90 55 -28 66 20 4 55 15 77 25 54
24 56 23 49 -8z m-272 -240 c12 -10 18 -30 18 -55 0 -79 -98 -130 -145 -78
-17 19 -18 26 -6 68 7 26 19 55 28 64 20 23 80 23 105 1z m259 -23 c24 0 49
-42 49 -81 0 -91 -118 -147 -170 -81 -26 32 -23 91 7 124 22 25 73 49 91 43 8
-3 18 -5 23 -5z m324 -78 c35 -47 44 -67 36 -75 -18 -18 -13 -24 26 -32 79
-15 133 -56 133 -103 0 -10 11 -29 25 -42 13 -12 22 -27 19 -31 -9 -16 -51 -9
-78 12 -25 20 -32 21 -117 11 -103 -13 -109 -15 -109 -46 0 -13 -9 -35 -21
-50 -47 -59 -144 -18 -144 62 0 48 54 125 112 158 l41 25 -25 25 c-21 21 -25
32 -20 66 5 40 54 106 67 91 4 -5 28 -36 55 -71z m-597 -258 c49 -56 13 -154
-57 -154 -43 0 -60 9 -76 41 -18 34 -19 66 -1 98 30 54 92 61 134 15z m212
-221 c0 -12 -33 -43 -47 -43 -7 0 -22 -5 -32 -11 -22 -14 -71 -4 -71 14 0 7
26 20 58 29 64 18 92 21 92 11z m355 -118 c33 -14 63 -25 67 -25 5 0 31 -16
58 -36 56 -40 217 -227 201 -232 -6 -2 -23 8 -38 23 -37 35 -142 104 -222 146
-60 31 -64 32 -77 15 -41 -57 -25 -176 47 -345 80 -184 169 -300 352 -457 56
-48 111 -97 122 -107 44 -44 -41 21 -130 100 -126 110 -187 175 -253 273 -68
100 -145 271 -163 359 -14 73 -6 156 17 182 16 17 15 19 -8 28 -44 17 -140 31
-206 31 -59 0 -63 1 -51 17 47 56 183 70 284 28z m-445 -12 c0 -2 -17 -47 -39
-100 -44 -111 -111 -315 -111 -338 0 -19 -2 -19 -92 1 -103 23 -308 23 -417 0
-269 -57 -414 -159 -722 -506 -75 -85 -164 -181 -197 -214 -58 -56 -60 -57
-67 -35 -4 13 -12 27 -18 30 -5 4 -87 -33 -181 -81 -162 -82 -417 -190 -448
-190 -23 0 -66 -52 -70 -84 -3 -29 -6 -31 -113 -59 -177 -46 -983 -276 -1065
-304 -252 -86 -581 -312 -741 -511 -68 -85 -85 -113 -94 -165 l-7 -38 203 6
204 5 740 211 c407 116 776 222 819 235 44 13 81 23 82 21 2 -2 5 -18 6 -37
l3 -34 -140 -42 c-77 -23 -300 -88 -495 -144 -195 -55 -454 -130 -575 -165
-121 -36 -256 -74 -300 -86 -44 -11 -123 -33 -175 -49 -52 -16 -180 -54 -285
-84 -104 -29 -218 -63 -253 -74 -72 -23 -71 -25 -41 74 78 254 325 542 655
763 182 122 483 263 769 359 204 69 302 97 666 193 344 89 522 158 731 283
118 69 167 113 473 415 253 250 352 339 527 468 129 96 159 115 329 202 l146
76 147 0 c80 0 146 -1 146 -2z m25 -61 c0 -48 7 -84 24 -127 82 -202 343 -519
624 -757 276 -233 489 -345 745 -389 128 -21 210 -24 330 -9 169 21 267 72
312 161 37 71 23 225 -29 327 -12 23 -20 42 -18 42 2 0 27 -33 56 -74 47 -66
59 -76 117 -101 35 -15 82 -40 104 -56 56 -41 124 -137 149 -211 29 -84 26
-91 -10 -32 -40 62 -83 104 -108 104 -29 0 -125 -22 -135 -31 -5 -4 15 -32 43
-61 63 -64 111 -134 146 -213 14 -33 31 -62 36 -66 29 -18 -81 -149 -189 -226
-50 -36 -245 -133 -267 -133 -3 0 13 17 36 37 52 47 77 92 57 104 -19 13 -29
11 -125 -17 -130 -38 -324 -44 -492 -15 -233 40 -454 132 -606 254 -140 112
-257 286 -239 355 3 10 15 22 26 27 29 13 33 31 10 44 -23 12 -173 -23 -246
-58 -123 -60 -253 -233 -276 -369 -20 -121 10 -211 100 -301 l51 -51 -53 31
c-93 55 -195 129 -262 190 -52 48 -70 73 -94 132 -30 71 -64 224 -77 341 l-7
59 74 -6 c130 -10 211 -55 224 -123 3 -18 13 -39 20 -45 20 -17 50 13 196 196
66 83 134 162 150 177 27 23 30 31 24 62 -23 123 -299 336 -533 411 -29 10
-53 19 -53 20 0 17 61 204 100 307 28 73 53 139 55 146 8 23 10 12 10 -56z
m791 28 c132 -46 298 -178 385 -305 43 -64 132 -240 113 -224 -8 7 -30 45 -48
85 -82 176 -200 303 -367 393 -99 53 -182 74 -280 69 -81 -3 -98 8 -19 14 64
4 150 -8 216 -32z m684 -197 c111 -65 217 -199 283 -356 56 -134 88 -330 70
-427 -7 -38 -9 -28 -10 61 -2 204 -52 369 -159 527 -63 92 -122 147 -206 192
-90 48 -160 42 -184 -16 -21 -50 -17 -92 17 -199 17 -53 29 -98 26 -101 -2 -3
-19 39 -37 93 -39 118 -39 196 -1 237 39 42 118 37 201 -11z m-307 -281 c43
-41 60 -78 46 -101 -16 -24 -5 -51 20 -51 11 0 25 -10 32 -21 20 -38 47 -144
52 -210 l6 -64 -13 70 c-15 79 -32 147 -48 188 -7 19 -18 27 -34 27 -13 0 -28
9 -34 19 -13 25 -13 27 6 46 14 14 15 18 0 38 -43 62 -89 97 -127 97 -42 0
-54 -30 -52 -130 1 -86 27 -193 76 -318 23 -59 78 -129 111 -142 15 -6 16 -9
5 -9 -26 -1 -90 69 -116 128 -40 90 -83 240 -89 317 -8 80 6 136 38 158 18 13
25 13 57 0 20 -8 49 -27 64 -42z m-1376 -24 c-3 -8 -6 -5 -6 6 -1 11 2 17 5
13 3 -3 4 -12 1 -19z m1682 -3 c16 -8 43 -32 60 -54 26 -33 30 -44 22 -60 -15
-28 -14 -31 12 -32 17 -1 18 -2 4 -6 -10 -3 -25 -2 -34 1 -13 6 -13 9 2 32 17
26 16 27 -22 66 -50 53 -78 63 -111 42 -24 -16 -25 -18 -19 -108 9 -149 63
-322 123 -397 l36 -44 -44 47 c-40 44 -68 108 -104 238 -13 47 -31 203 -26
224 6 27 41 66 59 66 8 0 27 -7 42 -15z m-1652 -17 c-3 -8 -6 -5 -6 6 -1 11 2
17 5 13 3 -3 4 -12 1 -19z m-40 -20 c-3 -8 -6 -5 -6 6 -1 11 2 17 5 13 3 -3 4
-12 1 -19z m30 -20 c-3 -8 -6 -5 -6 6 -1 11 2 17 5 13 3 -3 4 -12 1 -19z m-40
-20 c-3 -8 -6 -5 -6 6 -1 11 2 17 5 13 3 -3 4 -12 1 -19z m30 -30 c-3 -7 -5
-2 -5 12 0 14 2 19 5 13 2 -7 2 -19 0 -25z m-40 -20 c-3 -8 -6 -5 -6 6 -1 11
2 17 5 13 3 -3 4 -12 1 -19z m-837 8 c0 -2 -8 -10 -17 -17 -16 -13 -17 -12 -4
4 13 16 21 21 21 13z m867 -38 c-3 -7 -5 -2 -5 12 0 14 2 19 5 13 2 -7 2 -19
0 -25z m-40 -20 c-3 -7 -5 -2 -5 12 0 14 2 19 5 13 2 -7 2 -19 0 -25z m1883
-68 c14 -42 23 -98 25 -155 l4 -90 -9 90 c-7 78 -22 136 -55 220 -6 14 -5 17
3 10 6 -5 20 -39 32 -75z m-1853 38 c-3 -7 -5 -2 -5 12 0 14 2 19 5 13 2 -7 2
-19 0 -25z m464 15 c13 -16 12 -17 -3 -4 -17 13 -22 21 -14 21 2 0 10 -8 17
-17z m-1411 -6 c0 -2 -19 -21 -42 -42 l-43 -40 40 43 c36 39 45 47 45 39z
m907 -39 c-3 -7 -5 -2 -5 12 0 14 2 19 5 13 2 -7 2 -19 0 -25z m30 -30 c-3 -7
-5 -2 -5 12 0 14 2 19 5 13 2 -7 2 -19 0 -25z m-40 -35 c-3 -10 -5 -2 -5 17 0
19 2 27 5 18 2 -10 2 -26 0 -35z m604 20 c13 -16 12 -17 -3 -4 -17 13 -22 21
-14 21 2 0 10 -8 17 -17z m-574 -60 c-3 -10 -5 -4 -5 12 0 17 2 24 5 18 2 -7
2 -21 0 -30z m-40 -40 c-3 -10 -5 -2 -5 17 0 19 2 27 5 18 2 -10 2 -26 0 -35z
m644 -16 l-24 -22 19 27 c10 14 21 24 23 22 3 -3 -6 -15 -18 -27z m-614 -74
c-2 -16 -4 -3 -4 27 0 30 2 43 4 28 2 -16 2 -40 0 -55z m-1117 54 c0 -2 -10
-12 -22 -23 l-23 -19 19 23 c18 21 26 27 26 19z m2666 -66 c-9 -16 -21 -33
-26 -36 -6 -4 -2 8 10 27 11 18 20 42 21 53 1 16 2 17 6 3 2 -9 -3 -30 -11
-47z m-1589 -63 c-2 -24 -4 -7 -4 37 0 44 2 63 4 43 2 -21 2 -57 0 -80z m1289
31 c3 -6 -5 -3 -20 6 -14 10 -26 19 -26 22 0 7 39 -17 46 -28z m654 12 c0 -5
-9 -19 -20 -32 l-20 -24 17 32 c19 34 23 39 23 24z m-3110 -14 c0 -2 -10 -12
-22 -23 l-23 -19 19 23 c18 21 26 27 26 19z m1178 -199 c12 -95 47 -256 67
-303 5 -11 -17 3 -51 33 -184 165 -300 194 -536 133 -131 -34 -168 -49 -168
-68 0 -17 2 -17 95 14 67 22 98 27 190 27 122 1 171 -12 260 -69 50 -33 252
-213 379 -340 l68 -68 -73 7 c-167 14 -421 -29 -551 -95 -89 -45 -120 -71
-328 -274 -102 -99 -214 -200 -249 -224 -105 -72 -234 -125 -471 -196 -124
-37 -283 -85 -355 -107 -108 -33 -144 -40 -215 -40 -81 0 -125 -11 -1005 -263
-506 -146 -942 -271 -970 -279 -111 -34 -202 -5 -307 98 -94 93 -154 226 -146
327 3 38 6 42 43 55 45 15 924 267 1620 465 253 72 501 144 550 159 50 15 92
26 94 24 2 -2 14 -52 26 -111 50 -239 66 -290 97 -322 62 -63 64 -63 397 43
165 53 308 96 319 96 10 0 29 11 41 24 30 32 26 50 -34 191 -48 114 -112 313
-121 376 -5 33 -2 38 31 57 35 21 53 47 41 59 -3 3 -24 -6 -46 -21 -47 -31
-50 -31 -50 -8 0 12 35 42 102 87 56 38 146 105 201 149 193 153 389 275 566
351 136 58 344 112 442 114 l35 1 12 -102z m-1416 60 c3 -7 0 -37 -5 -68 -16
-97 12 -440 49 -600 5 -24 -2 -30 -123 -92 -175 -90 -433 -196 -520 -214 -36
-7 -34 -13 -57 151 -37 252 -29 489 18 540 11 12 71 42 131 65 117 45 338 149
420 198 55 33 81 39 87 20z m4013 -38 c3 -6 -1 -7 -9 -4 -18 7 -21 14 -7 14 6
0 13 -4 16 -10z m-3665 -364 c0 -2 -8 -10 -17 -17 -16 -13 -17 -12 -4 4 13 16
21 21 21 13z m-255 -462 c20 -71 55 -178 79 -239 60 -150 60 -152 42 -180 -12
-18 -56 -36 -208 -85 -106 -34 -238 -76 -293 -94 -82 -26 -108 -30 -144 -24
-48 8 -96 46 -104 81 -3 12 -24 100 -46 194 -23 95 -41 175 -41 177 0 2 55 22
123 44 148 50 352 141 467 209 47 28 86 50 88 49 1 -2 18 -61 37 -132z m-2555
-228 c0 -2 -8 -10 -17 -17 -16 -13 -17 -12 -4 4 13 16 21 21 21 13z m-90 -89
c0 -2 -10 -12 -22 -23 l-23 -19 19 23 c18 21 26 27 26 19z m47 -183 c-3 -3
-12 -4 -19 -1 -8 3 -5 6 6 6 11 1 17 -2 13 -5z"/>
<path d="M5085 4921 c-57 -15 -95 -41 -115 -81 -22 -43 -24 -58 -11 -78 6 -10
18 -6 54 18 65 43 110 60 180 67 45 4 72 1 101 -11 46 -19 53 -15 38 19 -23
51 -163 89 -247 66z"/>
<path d="M6818 3175 c-13 -13 -160 -58 -279 -84 -133 -30 -172 -49 -154 -75
22 -31 131 -198 150 -228 29 -48 59 -46 230 11 187 62 244 86 252 107 9 23
-68 172 -115 223 -35 37 -72 58 -84 46z m70 -92 c42 -62 82 -136 82 -152 0
-15 -284 -115 -360 -127 -33 -5 -36 -3 -54 37 -11 24 -38 70 -61 103 -22 34
-44 66 -48 72 -4 7 38 22 126 43 73 18 161 43 197 56 36 13 68 23 72 24 4 1
25 -25 46 -56z"/>
<path d="M6745 3093 c-27 -8 -52 -16 -54 -18 -2 -2 6 -16 17 -32 11 -15 34
-57 52 -93 18 -36 34 -67 36 -69 1 -1 25 5 53 14 87 28 111 87 51 124 -15 9
-25 22 -22 29 6 19 -38 62 -62 61 -12 0 -43 -7 -71 -16z m75 -49 c0 -18 -36
-18 -43 0 -6 16 10 26 31 18 6 -2 12 -10 12 -18z m48 -75 c2 -9 -5 -19 -14
-23 -18 -7 -34 8 -34 32 0 19 44 11 48 -9z"/>
<path d="M6528 3038 c-27 -6 -48 -13 -48 -17 0 -3 15 -27 33 -52 17 -25 43
-69 57 -98 24 -52 25 -52 60 -46 53 10 96 33 110 60 19 36 -1 95 -45 134 -39
34 -75 38 -167 19z m123 -58 c24 -23 30 -37 27 -62 -5 -54 -31 -47 -69 19 -19
32 -35 61 -37 66 -2 4 8 7 23 7 16 0 38 -12 56 -30z"/>
<path d="M6017 3048 c-6 -4 3 -25 25 -55 48 -65 168 -274 168 -291 0 -12 18
-13 101 -7 56 3 107 8 113 10 6 2 23 6 39 9 15 4 27 11 27 16 0 11 -126 195
-182 265 l-40 50 -120 5 c-66 3 -125 2 -131 -2z"/>
<path d="M3635 2952 c-130 -70 -118 -50 -110 -182 7 -120 18 -206 28 -216 3
-3 36 13 73 35 37 23 83 47 101 53 27 10 33 17 33 40 0 36 -11 35 -87 -6 l-61
-33 -6 30 c-3 16 -6 33 -6 37 0 4 23 22 50 40 37 24 50 38 50 56 0 31 -16 30
-62 -1 -20 -14 -40 -25 -43 -25 -3 0 -5 19 -3 42 3 41 6 44 65 78 53 30 63 39
63 63 0 15 -3 27 -7 27 -5 0 -39 -17 -78 -38z"/>
<path d="M3445 2836 c-44 -19 -111 -99 -129 -153 -31 -90 -15 -220 29 -249 35
-23 69 -11 126 44 39 37 48 52 43 69 -6 22 -7 22 -47 -12 -23 -20 -48 -34 -56
-33 -28 6 -42 50 -39 123 4 80 27 124 78 147 24 10 30 19 30 45 0 18 -1 33 -2
33 -2 -1 -17 -7 -33 -14z"/>
<path d="M3211 2659 l-24 -20 18 -162 c10 -89 19 -163 21 -165 5 -8 64 30 64
41 0 6 -7 62 -15 122 -8 61 -15 131 -15 158 0 53 -11 58 -49 26z"/>
<path d="M2751 3073 c-69 -35 -163 -78 -209 -95 -121 -46 -125 -54 -118 -233
6 -129 19 -256 32 -297 3 -9 19 -25 35 -36 l31 -19 96 34 c164 57 225 82 281
114 l54 31 -8 97 c-4 53 -10 173 -14 267 -6 170 -14 206 -45 203 -6 -1 -67
-30 -135 -66z m156 -220 c-2 -16 -4 -5 -4 22 0 28 2 40 4 28 2 -13 2 -35 0
-50z m-423 -399 c3 -8 2 -12 -4 -9 -6 3 -10 10 -10 16 0 14 7 11 14 -7z"/>
<path d="M5869 4841 c-62 -19 -98 -50 -99 -85 0 -15 5 -17 28 -11 54 16 127 9
177 -15 56 -27 115 -76 115 -96 0 -23 19 -16 32 11 25 54 -59 164 -145 190
-55 16 -69 17 -108 6z"/>
</g>
</svg>
